<svg width="38" height="38" viewBox="0 0 38 38" version="1.1" xmlns="http://www.w3.org/2000/svg" xmlns:xlink="http://www.w3.org/1999/xlink">
<title>&#208;&#157;&#208;&#181;&#208;&#176;&#208;&#186;&#209;&#130;&#208;&#184;&#208;&#178;&#208;&#189;&#208;&#190; &#208;&#186;&#208;&#176;&#209;&#128;&#209;&#130;&#209;&#139;</title>
<desc>Created using Figma</desc>
<g id="Canvas" transform="translate(48906 45044)">
<g id="&#208;&#157;&#208;&#181;&#208;&#176;&#208;&#186;&#209;&#130;&#208;&#184;&#208;&#178;&#208;&#189;&#208;&#190; &#208;&#186;&#208;&#176;&#209;&#128;&#209;&#130;&#209;&#139;">
<g id="Ellipse">
<mask id="mask0_outline_ins">
<use xlink:href="#path0_fill" fill="white" transform="translate(-48906 -45044)"/>
</mask>
<g mask="url(#mask0_outline_ins)">
<use xlink:href="#path1_stroke_2x" transform="translate(-48906 -45044)" fill="#89F5BB"/>
</g>
</g>
<g id="Rectangle">
<mask id="mask1_outline_ins">
<use xlink:href="#path2_fill" fill="white" transform="translate(-48893 -45035)"/>
</mask>
<g mask="url(#mask1_outline_ins)">
<use xlink:href="#path3_stroke_2x" transform="translate(-48893 -45035)" fill="#89F5BB"/>
</g>
</g>
<g id="Rectangle">
<mask id="mask2_outline_ins">
<use xlink:href="#path4_fill" fill="white" transform="translate(-48898 -45029)"/>
</mask>
<g mask="url(#mask2_outline_ins)">
<use xlink:href="#path5_stroke_2x" transform="translate(-48898 -45029)" fill="#89F5BB"/>
</g>
</g>
</g>
</g>
<defs>
<path id="path0_fill" d="M 38 19C 38 29.4934 29.4934 38 19 38C 8.50659 38 0 29.4934 0 19C 0 8.50659 8.50659 0 19 0C 29.4934 0 38 8.50659 38 19Z"/>
<path id="path1_stroke_2x" d="M 36 19C 36 28.3888 28.3888 36 19 36L 19 40C 30.598 40 40 30.598 40 19L 36 19ZM 19 36C 9.61116 36 2 28.3888 2 19L -2 19C -2 30.598 7.40202 40 19 40L 19 36ZM 2 19C 2 9.61116 9.61116 2 19 2L 19 -2C 7.40202 -2 -2 7.40202 -2 19L 2 19ZM 19 2C 28.3888 2 36 9.61116 36 19L 40 19C 40 7.40202 30.598 -2 19 -2L 19 2Z"/>
<path id="path2_fill" d="M 0 1.99986C 0 0.895288 0.895431 0 2 0L 15 0C 16.1046 0 17 0.895431 17 2L 17 11C 17 12.1046 16.103 13 14.9985 13C 10.1868 13 6.8132 13 2.00154 13C 0.896975 13 0 12.1048 0 11.0003C 0 8.80181 0 5.16155 0 1.99986Z"/>
<path id="path3_stroke_2x" d="M 2 2L 15 2L 15 -2L 2 -2L 2 2ZM 15 2L 15 11L 19 11L 19 2L 15 2ZM 14.9985 11C 14.9891 11 14.9797 11 14.9703 11C 14.9609 11 14.9515 11 14.9421 11C 14.9328 11 14.9234 11 14.914 11C 14.9047 11 14.8953 11 14.8859 11C 14.8766 11 14.8672 11 14.8579 11C 14.8486 11 14.8392 11 14.8299 11C 14.8206 11 14.8112 11 14.8019 11C 14.7926 11 14.7833 11 14.774 11C 14.7646 11 14.7553 11 14.746 11C 14.7367 11 14.7274 11 14.7181 11C 14.7089 11 14.6996 11 14.6903 11C 14.681 11 14.6717 11 14.6625 11C 14.6532 11 14.6439 11 14.6347 11C 14.6254 11 14.6162 11 14.6069 11C 14.5977 11 14.5884 11 14.5792 11C 14.5699 11 14.5607 11 14.5515 11C 14.5423 11 14.533 11 14.5238 11C 14.5146 11 14.5054 11 14.4962 11C 14.487 11 14.4778 11 14.4686 11C 14.4594 11 14.4502 11 14.441 11C 14.4318 11 14.4226 11 14.4135 11C 14.4043 11 14.3951 11 14.3859 11C 14.3768 11 14.3676 11 14.3585 11C 14.3493 11 14.3401 11 14.331 11C 14.3219 11 14.3127 11 14.3036 11C 14.2944 11 14.2853 11 14.2762 11C 14.2671 11 14.2579 11 14.2488 11C 14.2397 11 14.2306 11 14.2215 11C 14.2124 11 14.2033 11 14.1942 11C 14.1851 11 14.176 11 14.1669 11C 14.1578 11 14.1487 11 14.1396 11C 14.1306 11 14.1215 11 14.1124 11C 14.1034 11 14.0943 11 14.0852 11C 14.0762 11 14.0671 11 14.0581 11C 14.049 11 14.04 11 14.0309 11C 14.0219 11 14.0129 11 14.0038 11C 13.9948 11 13.9858 11 13.9767 11C 13.9677 11 13.9587 11 13.9497 11C 13.9407 11 13.9317 11 13.9227 11C 13.9137 11 13.9047 11 13.8957 11C 13.8867 11 13.8777 11 13.8687 11C 13.8597 11 13.8508 11 13.8418 11C 13.8328 11 13.8238 11 13.8149 11C 13.8059 11 13.7969 11 13.788 11C 13.779 11 13.7701 11 13.7611 11C 13.7522 11 13.7432 11 13.7343 11C 13.7254 11 13.7164 11 13.7075 11C 13.6986 11 13.6896 11 13.6807 11C 13.6718 11 13.6629 11 13.654 11C 13.6451 11 13.6362 11 13.6273 11C 13.6184 11 13.6095 11 13.6006 11C 13.5917 11 13.5828 11 13.5739 11C 13.565 11 13.5561 11 13.5472 11C 13.5384 11 13.5295 11 13.5206 11C 13.5118 11 13.5029 11 13.494 11C 13.4852 11 13.4763 11 13.4675 11C 13.4586 11 13.4498 11 13.4409 11C 13.4321 11 13.4233 11 13.4144 11C 13.4056 11 13.3968 11 13.3879 11C 13.3791 11 13.3703 11 13.3615 11C 13.3527 11 13.3438 11 13.335 11C 13.3262 11 13.3174 11 13.3086 11C 13.2998 11 13.291 11 13.2822 11C 13.2734 11 13.2647 11 13.2559 11C 13.2471 11 13.2383 11 13.2295 11C 13.2208 11 13.212 11 13.2032 11C 13.1945 11 13.1857 11 13.1769 11C 13.1682 11 13.1594 11 13.1507 11C 13.1419 11 13.1332 11 13.1244 11C 13.1157 11 13.1069 11 13.0982 11C 13.0895 11 13.0807 11 13.072 11C 13.0633 11 13.0546 11 13.0459 11C 13.0371 11 13.0284 11 13.0197 11C 13.011 11 13.0023 11 12.9936 11C 12.9849 11 12.9762 11 12.9675 11C 12.9588 11 12.9501 11 12.9414 11C 12.9327 11 12.924 11 12.9154 11C 12.9067 11 12.898 11 12.8893 11C 12.8807 11 12.872 11 12.8633 11C 12.8547 11 12.846 11 12.8373 11C 12.8287 11 12.82 11 12.8114 11C 12.8027 11 12.7941 11 12.7854 11C 12.7768 11 12.7682 11 12.7595 11C 12.7509 11 12.7423 11 12.7336 11C 12.725 11 12.7164 11 12.7078 11C 12.6991 11 12.6905 11 12.6819 11C 12.6733 11 12.6647 11 12.6561 11C 12.6475 11 12.6389 11 12.6303 11C 12.6217 11 12.6131 11 12.6045 11C 12.5959 11 12.5873 11 12.5787 11C 12.5702 11 12.5616 11 12.553 11C 12.5444 11 12.5358 11 12.5273 11C 12.5187 11 12.5101 11 12.5016 11C 12.493 11 12.4845 11 12.4759 11C 12.4673 11 12.4588 11 12.4502 11C 12.4417 11 12.4332 11 12.4246 11C 12.4161 11 12.4075 11 12.399 11C 12.3905 11 12.3819 11 12.3734 11C 12.3649 11 12.3563 11 12.3478 11C 12.3393 11 12.3308 11 12.3223 11C 12.3138 11 12.3052 11 12.2967 11C 12.2882 11 12.2797 11 12.2712 11C 12.2627 11 12.2542 11 12.2457 11C 12.2372 11 12.2287 11 12.2202 11C 12.2118 11 12.2033 11 12.1948 11C 12.1863 11 12.1778 11 12.1694 11C 12.1609 11 12.1524 11 12.1439 11C 12.1355 11 12.127 11 12.1185 11C 12.1101 11 12.1016 11 12.0932 11C 12.0847 11 12.0763 11 12.0678 11C 12.0594 11 12.0509 11 12.0425 11C 12.034 11 12.0256 11 12.0171 11C 12.0087 11 12.0003 11 11.9918 11C 11.9834 11 11.975 11 11.9666 11C 11.9581 11 11.9497 11 11.9413 11C 11.9329 11 11.9244 11 11.916 11C 11.9076 11 11.8992 11 11.8908 11C 11.8824 11 11.874 11 11.8656 11C 11.8572 11 11.8488 11 11.8404 11C 11.832 11 11.8236 11 11.8152 11C 11.8068 11 11.7984 11 11.7901 11C 11.7817 11 11.7733 11 11.7649 11C 11.7565 11 11.7482 11 11.7398 11C 11.7314 11 11.723 11 11.7147 11C 11.7063 11 11.6979 11 11.6896 11C 11.6812 11 11.6729 11 11.6645 11C 11.6562 11 11.6478 11 11.6395 11C 11.6311 11 11.6228 11 11.6144 11C 11.6061 11 11.5977 11 11.5894 11C 11.581 11 11.5727 11 11.5644 11C 11.556 11 11.5477 11 11.5394 11C 11.5311 11 11.5227 11 11.5144 11C 11.5061 11 11.4978 11 11.4894 11C 11.4811 11 11.4728 11 11.4645 11C 11.4562 11 11.4479 11 11.4396 11C 11.4313 11 11.423 11 11.4147 11C 11.4064 11 11.3981 11 11.3898 11C 11.3815 11 11.3732 11 11.3649 11C 11.3566 11 11.3483 11 11.34 11C 11.3317 11 11.3234 11 11.3152 11C 11.3069 11 11.2986 11 11.2903 11C 11.282 11 11.2738 11 11.2655 11C 11.2572 11 11.249 11 11.2407 11C 11.2324 11 11.2242 11 11.2159 11C 11.2076 11 11.1994 11 11.1911 11C 11.1829 11 11.1746 11 11.1663 11C 11.1581 11 11.1498 11 11.1416 11C 11.1333 11 11.1251 11 11.1169 11C 11.1086 11 11.1004 11 11.0921 11C 11.0839 11 11.0757 11 11.0674 11C 11.0592 11 11.051 11 11.0427 11C 11.0345 11 11.0263 11 11.018 11C 11.0098 11 11.0016 11 10.9934 11C 10.9852 11 10.9769 11 10.9687 11C 10.9605 11 10.9523 11 10.9441 11C 10.9359 11 10.9277 11 10.9195 11C 10.9112 11 10.903 11 10.8948 11C 10.8866 11 10.8784 11 10.8702 11C 10.862 11 10.8538 11 10.8456 11C 10.8374 11 10.8293 11 10.8211 11C 10.8129 11 10.8047 11 10.7965 11C 10.7883 11 10.7801 11 10.7719 11C 10.7638 11 10.7556 11 10.7474 11C 10.7392 11 10.731 11 10.7229 11C 10.7147 11 10.7065 11 10.6983 11C 10.6902 11 10.682 11 10.6738 11C 10.6657 11 10.6575 11 10.6493 11C 10.6412 11 10.633 11 10.6249 11C 10.6167 11 10.6085 11 10.6004 11C 10.5922 11 10.5841 11 10.5759 11C 10.5678 11 10.5596 11 10.5515 11C 10.5433 11 10.5352 11 10.527 11C 10.5189 11 10.5108 11 10.5026 11C 10.4945 11 10.4863 11 10.4782 11C 10.4701 11 10.4619 11 10.4538 11C 10.4457 11 10.4375 11 10.4294 11C 10.4213 11 10.4131 11 10.405 11C 10.3969 11 10.3888 11 10.3806 11C 10.3725 11 10.3644 11 10.3563 11C 10.3481 11 10.34 11 10.3319 11C 10.3238 11 10.3157 11 10.3076 11C 10.2994 11 10.2913 11 10.2832 11C 10.2751 11 10.267 11 10.2589 11C 10.2508 11 10.2427 11 10.2346 11C 10.2265 11 10.2184 11 10.2103 11C 10.2022 11 10.1941 11 10.186 11C 10.1779 11 10.1698 11 10.1617 11C 10.1536 11 10.1455 11 10.1374 11C 10.1293 11 10.1212 11 10.1131 11C 10.105 11 10.0969 11 10.0889 11C 10.0808 11 10.0727 11 10.0646 11C 10.0565 11 10.0484 11 10.0404 11C 10.0323 11 10.0242 11 10.0161 11C 10.008 11 9.99996 11 9.99188 11C 9.98381 11 9.97573 11 9.96766 11C 9.95959 11 9.95151 11 9.94344 11C 9.93537 11 9.9273 11 9.91923 11C 9.91117 11 9.9031 11 9.89503 11C 9.88697 11 9.8789 11 9.87084 11C 9.86278 11 9.85472 11 9.84666 11C 9.8386 11 9.83054 11 9.82248 11C 9.81442 11 9.80636 11 9.79831 11C 9.79025 11 9.7822 11 9.77414 11C 9.76609 11 9.75804 11 9.74999 11C 9.74193 11 9.73388 11 9.72583 11C 9.71779 11 9.70974 11 9.70169 11C 9.69364 11 9.6856 11 9.67755 11C 9.66951 11 9.66146 11 9.65342 11C 9.64538 11 9.63734 11 9.6293 11C 9.62126 11 9.61322 11 9.60518 11C 9.59714 11 9.5891 11 9.58106 11C 9.57303 11 9.56499 11 9.55696 11C 9.54892 11 9.54089 11 9.53285 11C 9.52482 11 9.51679 11 9.50876 11C 9.50073 11 9.4927 11 9.48467 11C 9.47664 11 9.46861 11 9.46058 11C 9.45255 11 9.44453 11 9.4365 11C 9.42847 11 9.42045 11 9.41242 11C 9.4044 11 9.39638 11 9.38835 11C 9.38033 11 9.37231 11 9.36429 11C 9.35627 11 9.34825 11 9.34023 11C 9.33221 11 9.32419 11 9.31617 11C 9.30815 11 9.30013 11 9.29212 11C 9.2841 11 9.27609 11 9.26807 11C 9.26005 11 9.25204 11 9.24403 11C 9.23601 11 9.228 11 9.21999 11C 9.21197 11 9.20396 11 9.19595 11C 9.18794 11 9.17993 11 9.17192 11C 9.16391 11 9.1559 11 9.14789 11C 9.13988 11 9.13187 11 9.12386 11C 9.11585 11 9.10785 11 9.09984 11C 9.09183 11 9.08383 11 9.07582 11C 9.06782 11 9.05981 11 9.05181 11C 9.0438 11 9.0358 11 9.02779 11C 9.01979 11 9.01179 11 9.00378 11C 8.99578 11 8.98778 11 8.97978 11C 8.97177 11 8.96377 11 8.95577 11C 8.94777 11 8.93977 11 8.93177 11C 8.92377 11 8.91577 11 8.90777 11C 8.89977 11 8.89177 11 8.88377 11C 8.87577 11 8.86777 11 8.85978 11C 8.85178 11 8.84378 11 8.83578 11C 8.82778 11 8.81979 11 8.81179 11C 8.80379 11 8.7958 11 8.7878 11C 8.7798 11 8.77181 11 8.76381 11C 8.75582 11 8.74782 11 8.73982 11C 8.73183 11 8.72383 11 8.71584 11C 8.70784 11 8.69985 11 8.69185 11C 8.68386 11 8.67586 11 8.66787 11C 8.65987 11 8.65188 11 8.64389 11C 8.63589 11 8.6279 11 8.6199 11C 8.61191 11 8.60392 11 8.59592 11C 8.58793 11 8.57994 11 8.57194 11C 8.56395 11 8.55595 11 8.54796 11C 8.53997 11 8.53197 11 8.52398 11C 8.51599 11 8.50799 11 8.5 11C 8.49201 11 8.48401 11 8.47602 11C 8.46803 11 8.46003 11 8.45204 11C 8.44405 11 8.43605 11 8.42806 11C 8.42007 11 8.41207 11 8.40408 11C 8.39608 11 8.38809 11 8.3801 11C 8.3721 11 8.36411 11 8.35611 11C 8.34812 11 8.34013 11 8.33213 11C 8.32414 11 8.31614 11 8.30815 11C 8.30015 11 8.29216 11 8.28416 11C 8.27617 11 8.26817 11 8.26018 11C 8.25218 11 8.24419 11 8.23619 11C 8.22819 11 8.2202 11 8.2122 11C 8.2042 11 8.19621 11 8.18821 11C 8.18021 11 8.17222 11 8.16422 11C 8.15622 11 8.14822 11 8.14022 11C 8.13223 11 8.12423 11 8.11623 11C 8.10823 11 8.10023 11 8.09223 11C 8.08423 11 8.07623 11 8.06823 11C 8.06023 11 8.05223 11 8.04423 11C 8.03623 11 8.02823 11 8.02022 11C 8.01222 11 8.00422 11 7.99622 11C 7.98821 11 7.98021 11 7.97221 11C 7.9642 11 7.9562 11 7.94819 11C 7.94019 11 7.93218 11 7.92418 11C 7.91617 11 7.90817 11 7.90016 11C 7.89215 11 7.88415 11 7.87614 11C 7.86813 11 7.86012 11 7.85211 11C 7.8441 11 7.83609 11 7.82808 11C 7.82007 11 7.81206 11 7.80405 11C 7.79604 11 7.78803 11 7.78001 11C 7.772 11 7.76399 11 7.75597 11C 7.74796 11 7.73995 11 7.73193 11C 7.72392 11 7.7159 11 7.70788 11C 7.69987 11 7.69185 11 7.68383 11C 7.67581 11 7.66779 11 7.65977 11C 7.65175 11 7.64373 11 7.63571 11C 7.62769 11 7.61967 11 7.61165 11C 7.60362 11 7.5956 11 7.58758 11C 7.57955 11 7.57153 11 7.5635 11C 7.55547 11 7.54745 11 7.53942 11C 7.53139 11 7.52336 11 7.51533 11C 7.5073 11 7.49927 11 7.49124 11C 7.48321 11 7.47518 11 7.46715 11C 7.45911 11 7.45108 11 7.44304 11C 7.43501 11 7.42697 11 7.41894 11C 7.4109 11 7.40286 11 7.39482 11C 7.38678 11 7.37875 11 7.3707 11C 7.36266 11 7.35462 11 7.34658 11C 7.33854 11 7.33049 11 7.32245 11C 7.3144 11 7.30636 11 7.29831 11C 7.29026 11 7.28221 11 7.27417 11C 7.26612 11 7.25807 11 7.25001 11C 7.24196 11 7.23391 11 7.22586 11C 7.2178 11 7.20975 11 7.20169 11C 7.19364 11 7.18558 11 7.17752 11C 7.16946 11 7.1614 11 7.15334 11C 7.14528 11 7.13722 11 7.12916 11C 7.1211 11 7.11303 11 7.10497 11C 7.0969 11 7.08883 11 7.08077 11C 7.0727 11 7.06463 11 7.05656 11C 7.04849 11 7.04042 11 7.03234 11C 7.02427 11 7.01619 11 7.00812 11C 7.00004 11 6.99197 11 6.98389 11C 6.97581 11 6.96773 11 6.95965 11C 6.95157 11 6.94348 11 6.9354 11C 6.92732 11 6.91923 11 6.91114 11C 6.90306 11 6.89497 11 6.88688 11C 6.87879 11 6.8707 11 6.86261 11C 6.85451 11 6.84642 11 6.83832 11C 6.83023 11 6.82213 11 6.81403 11C 6.80594 11 6.79784 11 6.78973 11C 6.78163 11 6.77353 11 6.76542 11C 6.75732 11 6.74921 11 6.74111 11C 6.733 11 6.72489 11 6.71678 11C 6.70867 11 6.70056 11 6.69244 11C 6.68433 11 6.67621 11 6.6681 11C 6.65998 11 6.65186 11 6.64374 11C 6.63562 11 6.6275 11 6.61937 11C 6.61125 11 6.60312 11 6.595 11C 6.58687 11 6.57874 11 6.57061 11C 6.56248 11 6.55435 11 6.54621 11C 6.53808 11 6.52994 11 6.52181 11C 6.51367 11 6.50553 11 6.49739 11C 6.48925 11 6.4811 11 6.47296 11C 6.46481 11 6.45667 11 6.44852 11C 6.44037 11 6.43222 11 6.42407 11C 6.41592 11 6.40776 11 6.39961 11C 6.39145 11 6.3833 11 6.37514 11C 6.36698 11 6.35882 11 6.35065 11C 6.34249 11 6.33432 11 6.32616 11C 6.31799 11 6.30982 11 6.30165 11C 6.29348 11 6.28531 11 6.27713 11C 6.26896 11 6.26078 11 6.2526 11C 6.24442 11 6.23624 11 6.22806 11C 6.21988 11 6.21169 11 6.20351 11C 6.19532 11 6.18713 11 6.17894 11C 6.17075 11 6.16255 11 6.15436 11C 6.14616 11 6.13797 11 6.12977 11C 6.12157 11 6.11337 11 6.10516 11C 6.09696 11 6.08876 11 6.08055 11C 6.07234 11 6.06413 11 6.05592 11C 6.04771 11 6.03949 11 6.03128 11C 6.02306 11 6.01484 11 6.00662 11C 5.9984 11 5.99018 11 5.98195 11C 5.97373 11 5.9655 11 5.95727 11C 5.94904 11 5.94081 11 5.93257 11C 5.92434 11 5.9161 11 5.90786 11C 5.89963 11 5.89138 11 5.88314 11C 5.8749 11 5.86665 11 5.8584 11C 5.85016 11 5.84191 11 5.83365 11C 5.8254 11 5.81714 11 5.80889 11C 5.80063 11 5.79237 11 5.78411 11C 5.77585 11 5.76758 11 5.75931 11C 5.75105 11 5.74278 11 5.73451 11C 5.72623 11 5.71796 11 5.70968 11C 5.70141 11 5.69313 11 5.68484 11C 5.67656 11 5.66828 11 5.65999 11C 5.65171 11 5.64342 11 5.63512 11C 5.62683 11 5.61854 11 5.61024 11C 5.60194 11 5.59364 11 5.58534 11C 5.57704 11 5.56874 11 5.56043 11C 5.55212 11 5.54381 11 5.5355 11C 5.52719 11 5.51887 11 5.51056 11C 5.50224 11 5.49392 11 5.48559 11C 5.47727 11 5.46895 11 5.46062 11C 5.45229 11 5.44396 11 5.43562 11C 5.42729 11 5.41895 11 5.41062 11C 5.40228 11 5.39394 11 5.38559 11C 5.37725 11 5.3689 11 5.36055 11C 5.3522 11 5.34385 11 5.33549 11C 5.32713 11 5.31878 11 5.31042 11C 5.30205 11 5.29369 11 5.28532 11C 5.27696 11 5.26859 11 5.26021 11C 5.25184 11 5.24347 11 5.23509 11C 5.22671 11 5.21833 11 5.20995 11C 5.20156 11 5.19317 11 5.18478 11C 5.1764 11 5.168 11 5.15961 11C 5.15121 11 5.14281 11 5.13441 11C 5.12601 11 5.11761 11 5.1092 11C 5.10079 11 5.09238 11 5.08397 11C 5.07555 11 5.06714 11 5.05872 11C 5.0503 11 5.04188 11 5.03345 11C 5.02502 11 5.0166 11 5.00816 11C 4.99973 11 4.9913 11 4.98286 11C 4.97442 11 4.96598 11 4.95754 11C 4.94909 11 4.94065 11 4.9322 11C 4.92375 11 4.91529 11 4.90684 11C 4.89838 11 4.88992 11 4.88146 11C 4.87299 11 4.86453 11 4.85606 11C 4.84759 11 4.83912 11 4.83064 11C 4.82217 11 4.81369 11 4.80521 11C 4.79672 11 4.78824 11 4.77975 11C 4.77126 11 4.76277 11 4.75428 11C 4.74578 11 4.73728 11 4.72878 11C 4.72028 11 4.71177 11 4.70327 11C 4.69476 11 4.68625 11 4.67773 11C 4.66922 11 4.6607 11 4.65218 11C 4.64365 11 4.63513 11 4.6266 11C 4.61807 11 4.60954 11 4.60101 11C 4.59247 11 4.58393 11 4.57539 11C 4.56685 11 4.5583 11 4.54975 11C 4.54121 11 4.53265 11 4.5241 11C 4.51554 11 4.50698 11 4.49842 11C 4.48986 11 4.48129 11 4.47272 11C 4.46415 11 4.45558 11 4.447 11C 4.43842 11 4.42984 11 4.42126 11C 4.41268 11 4.40409 11 4.3955 11C 4.38691 11 4.37831 11 4.36971 11C 4.36111 11 4.35251 11 4.34391 11C 4.3353 11 4.32669 11 4.31808 11C 4.30947 11 4.30085 11 4.29223 11C 4.28361 11 4.27499 11 4.26636 11C 4.25773 11 4.2491 11 4.24047 11C 4.23183 11 4.22319 11 4.21455 11C 4.20591 11 4.19726 11 4.18861 11C 4.17996 11 4.17131 11 4.16265 11C 4.154 11 4.14534 11 4.13667 11C 4.12801 11 4.11934 11 4.11067 11C 4.10199 11 4.09332 11 4.08464 11C 4.07596 11 4.06727 11 4.05859 11C 4.0499 11 4.04121 11 4.03251 11C 4.02381 11 4.01512 11 4.00641 11C 3.99771 11 3.989 11 3.98029 11C 3.97158 11 3.96286 11 3.95415 11C 3.94543 11 3.9367 11 3.92798 11C 3.91925 11 3.91052 11 3.90179 11C 3.89305 11 3.88431 11 3.87557 11C 3.86683 11 3.85808 11 3.84933 11C 3.84058 11 3.83182 11 3.82306 11C 3.81431 11 3.80554 11 3.79678 11C 3.78801 11 3.77924 11 3.77046 11C 3.76169 11 3.75291 11 3.74412 11C 3.73534 11 3.72655 11 3.71776 11C 3.70897 11 3.70017 11 3.69137 11C 3.68257 11 3.67377 11 3.66496 11C 3.65615 11 3.64734 11 3.63853 11C 3.62971 11 3.62089 11 3.61206 11C 3.60324 11 3.59441 11 3.58557 11C 3.57674 11 3.5679 11 3.55906 11C 3.55022 11 3.54137 11 3.53252 11C 3.52367 11 3.51482 11 3.50596 11C 3.4971 11 3.48824 11 3.47937 11C 3.4705 11 3.46163 11 3.45275 11C 3.44387 11 3.43499 11 3.42611 11C 3.41722 11 3.40833 11 3.39944 11C 3.39055 11 3.38165 11 3.37275 11C 3.36384 11 3.35494 11 3.34602 11C 3.33711 11 3.3282 11 3.31928 11C 3.31035 11 3.30143 11 3.2925 11C 3.28357 11 3.27464 11 3.2657 11C 3.25676 11 3.24782 11 3.23887 11C 3.22992 11 3.22097 11 3.21201 11C 3.20306 11 3.1941 11 3.18513 11C 3.17617 11 3.16719 11 3.15822 11C 3.14925 11 3.14027 11 3.13128 11C 3.1223 11 3.11331 11 3.10432 11C 3.09532 11 3.08633 11 3.07732 11C 3.06832 11 3.05931 11 3.0503 11C 3.04129 11 3.03227 11 3.02325 11C 3.01423 11 3.00521 11 2.99617 11C 2.98714 11 2.97811 11 2.96907 11C 2.96003 11 2.95098 11 2.94193 11C 2.93288 11 2.92383 11 2.91477 11C 2.90571 11 2.89665 11 2.88758 11C 2.87851 11 2.86944 11 2.86036 11C 2.85128 11 2.8422 11 2.83311 11C 2.82402 11 2.81493 11 2.80583 11C 2.79673 11 2.78763 11 2.77852 11C 2.76942 11 2.76031 11 2.75119 11C 2.74207 11 2.73295 11 2.72382 11C 2.71469 11 2.70556 11 2.69643 11C 2.68729 11 2.67815 11 2.669 11C 2.65985 11 2.6507 11 2.64155 11C 2.63239 11 2.62323 11 2.61406 11C 2.60489 11 2.59572 11 2.58654 11C 2.57737 11 2.56819 11 2.559 11C 2.54981 11 2.54062 11 2.53142 11C 2.52223 11 2.51302 11 2.50382 11C 2.49461 11 2.4854 11 2.47618 11C 2.46696 11 2.45774 11 2.44851 11C 2.43928 11 2.43005 11 2.42081 11C 2.41158 11 2.40233 11 2.39308 11C 2.38384 11 2.37458 11 2.36532 11C 2.35606 11 2.3468 11 2.33753 11C 2.32826 11 2.31899 11 2.30971 11C 2.30043 11 2.29114 11 2.28185 11C 2.27256 11 2.26327 11 2.25397 11C 2.24467 11 2.23536 11 2.22605 11C 2.21674 11 2.20742 11 2.1981 11C 2.18878 11 2.17945 11 2.17012 11C 2.16078 11 2.15145 11 2.1421 11C 2.13276 11 2.12341 11 2.11406 11C 2.1047 11 2.09534 11 2.08598 11C 2.07661 11 2.06724 11 2.05787 11C 2.04849 11 2.03911 11 2.02972 11C 2.02033 11 2.01094 11 2.00154 11L 2.00154 15C 2.01094 15 2.02033 15 2.02972 15C 2.03911 15 2.04849 15 2.05787 15C 2.06724 15 2.07661 15 2.08598 15C 2.09534 15 2.1047 15 2.11406 15C 2.12341 15 2.13276 15 2.1421 15C 2.15145 15 2.16078 15 2.17012 15C 2.17945 15 2.18878 15 2.1981 15C 2.20742 15 2.21674 15 2.22605 15C 2.23536 15 2.24467 15 2.25397 15C 2.26327 15 2.27256 15 2.28185 15C 2.29114 15 2.30043 15 2.30971 15C 2.31899 15 2.32826 15 2.33753 15C 2.3468 15 2.35606 15 2.36532 15C 2.37458 15 2.38384 15 2.39308 15C 2.40233 15 2.41158 15 2.42081 15C 2.43005 15 2.43928 15 2.44851 15C 2.45774 15 2.46696 15 2.47618 15C 2.4854 15 2.49461 15 2.50382 15C 2.51302 15 2.52223 15 2.53142 15C 2.54062 15 2.54981 15 2.559 15C 2.56819 15 2.57737 15 2.58654 15C 2.59572 15 2.60489 15 2.61406 15C 2.62323 15 2.63239 15 2.64155 15C 2.6507 15 2.65985 15 2.669 15C 2.67815 15 2.68729 15 2.69643 15C 2.70556 15 2.71469 15 2.72382 15C 2.73295 15 2.74207 15 2.75119 15C 2.76031 15 2.76942 15 2.77852 15C 2.78763 15 2.79673 15 2.80583 15C 2.81493 15 2.82402 15 2.83311 15C 2.8422 15 2.85128 15 2.86036 15C 2.86944 15 2.87851 15 2.88758 15C 2.89665 15 2.90571 15 2.91477 15C 2.92383 15 2.93288 15 2.94193 15C 2.95098 15 2.96003 15 2.96907 15C 2.97811 15 2.98714 15 2.99617 15C 3.00521 15 3.01423 15 3.02325 15C 3.03227 15 3.04129 15 3.0503 15C 3.05931 15 3.06832 15 3.07732 15C 3.08633 15 3.09532 15 3.10432 15C 3.11331 15 3.1223 15 3.13128 15C 3.14027 15 3.14925 15 3.15822 15C 3.16719 15 3.17617 15 3.18513 15C 3.1941 15 3.20306 15 3.21201 15C 3.22097 15 3.22992 15 3.23887 15C 3.24782 15 3.25676 15 3.2657 15C 3.27464 15 3.28357 15 3.2925 15C 3.30143 15 3.31035 15 3.31928 15C 3.3282 15 3.33711 15 3.34602 15C 3.35494 15 3.36384 15 3.37275 15C 3.38165 15 3.39055 15 3.39944 15C 3.40833 15 3.41722 15 3.42611 15C 3.43499 15 3.44387 15 3.45275 15C 3.46163 15 3.4705 15 3.47937 15C 3.48824 15 3.4971 15 3.50596 15C 3.51482 15 3.52367 15 3.53252 15C 3.54137 15 3.55022 15 3.55906 15C 3.5679 15 3.57674 15 3.58557 15C 3.59441 15 3.60324 15 3.61206 15C 3.62089 15 3.62971 15 3.63853 15C 3.64734 15 3.65615 15 3.66496 15C 3.67377 15 3.68257 15 3.69137 15C 3.70017 15 3.70897 15 3.71776 15C 3.72655 15 3.73534 15 3.74412 15C 3.75291 15 3.76169 15 3.77046 15C 3.77924 15 3.78801 15 3.79678 15C 3.80554 15 3.81431 15 3.82306 15C 3.83182 15 3.84058 15 3.84933 15C 3.85808 15 3.86683 15 3.87557 15C 3.88431 15 3.89305 15 3.90179 15C 3.91052 15 3.91925 15 3.92798 15C 3.9367 15 3.94543 15 3.95415 15C 3.96286 15 3.97158 15 3.98029 15C 3.989 15 3.99771 15 4.00641 15C 4.01512 15 4.02381 15 4.03251 15C 4.04121 15 4.0499 15 4.05859 15C 4.06727 15 4.07596 15 4.08464 15C 4.09332 15 4.10199 15 4.11067 15C 4.11934 15 4.12801 15 4.13667 15C 4.14534 15 4.154 15 4.16265 15C 4.17131 15 4.17996 15 4.18861 15C 4.19726 15 4.20591 15 4.21455 15C 4.22319 15 4.23183 15 4.24047 15C 4.2491 15 4.25773 15 4.26636 15C 4.27499 15 4.28361 15 4.29223 15C 4.30085 15 4.30947 15 4.31808 15C 4.32669 15 4.3353 15 4.34391 15C 4.35251 15 4.36111 15 4.36971 15C 4.37831 15 4.38691 15 4.3955 15C 4.40409 15 4.41268 15 4.42126 15C 4.42984 15 4.43842 15 4.447 15C 4.45558 15 4.46415 15 4.47272 15C 4.48129 15 4.48986 15 4.49842 15C 4.50698 15 4.51554 15 4.5241 15C 4.53265 15 4.54121 15 4.54975 15C 4.5583 15 4.56685 15 4.57539 15C 4.58393 15 4.59247 15 4.60101 15C 4.60954 15 4.61807 15 4.6266 15C 4.63513 15 4.64365 15 4.65218 15C 4.6607 15 4.66922 15 4.67773 15C 4.68625 15 4.69476 15 4.70327 15C 4.71177 15 4.72028 15 4.72878 15C 4.73728 15 4.74578 15 4.75428 15C 4.76277 15 4.77126 15 4.77975 15C 4.78824 15 4.79672 15 4.80521 15C 4.81369 15 4.82217 15 4.83064 15C 4.83912 15 4.84759 15 4.85606 15C 4.86453 15 4.87299 15 4.88146 15C 4.88992 15 4.89838 15 4.90684 15C 4.91529 15 4.92375 15 4.9322 15C 4.94065 15 4.94909 15 4.95754 15C 4.96598 15 4.97442 15 4.98286 15C 4.9913 15 4.99973 15 5.00816 15C 5.0166 15 5.02502 15 5.03345 15C 5.04188 15 5.0503 15 5.05872 15C 5.06714 15 5.07555 15 5.08397 15C 5.09238 15 5.10079 15 5.1092 15C 5.11761 15 5.12601 15 5.13441 15C 5.14281 15 5.15121 15 5.15961 15C 5.168 15 5.1764 15 5.18478 15C 5.19317 15 5.20156 15 5.20995 15C 5.21833 15 5.22671 15 5.23509 15C 5.24347 15 5.25184 15 5.26021 15C 5.26859 15 5.27696 15 5.28532 15C 5.29369 15 5.30205 15 5.31042 15C 5.31878 15 5.32713 15 5.33549 15C 5.34385 15 5.3522 15 5.36055 15C 5.3689 15 5.37725 15 5.38559 15C 5.39394 15 5.40228 15 5.41062 15C 5.41895 15 5.42729 15 5.43562 15C 5.44396 15 5.45229 15 5.46062 15C 5.46895 15 5.47727 15 5.48559 15C 5.49392 15 5.50224 15 5.51056 15C 5.51887 15 5.52719 15 5.5355 15C 5.54381 15 5.55212 15 5.56043 15C 5.56874 15 5.57704 15 5.58534 15C 5.59364 15 5.60194 15 5.61024 15C 5.61854 15 5.62683 15 5.63512 15C 5.64342 15 5.65171 15 5.65999 15C 5.66828 15 5.67656 15 5.68484 15C 5.69313 15 5.70141 15 5.70968 15C 5.71796 15 5.72623 15 5.73451 15C 5.74278 15 5.75105 15 5.75931 15C 5.76758 15 5.77585 15 5.78411 15C 5.79237 15 5.80063 15 5.80889 15C 5.81714 15 5.8254 15 5.83365 15C 5.84191 15 5.85016 15 5.8584 15C 5.86665 15 5.8749 15 5.88314 15C 5.89138 15 5.89963 15 5.90786 15C 5.9161 15 5.92434 15 5.93257 15C 5.94081 15 5.94904 15 5.95727 15C 5.9655 15 5.97373 15 5.98195 15C 5.99018 15 5.9984 15 6.00662 15C 6.01484 15 6.02306 15 6.03128 15C 6.03949 15 6.04771 15 6.05592 15C 6.06413 15 6.07234 15 6.08055 15C 6.08876 15 6.09696 15 6.10516 15C 6.11337 15 6.12157 15 6.12977 15C 6.13797 15 6.14616 15 6.15436 15C 6.16255 15 6.17075 15 6.17894 15C 6.18713 15 6.19532 15 6.20351 15C 6.21169 15 6.21988 15 6.22806 15C 6.23624 15 6.24442 15 6.2526 15C 6.26078 15 6.26896 15 6.27713 15C 6.28531 15 6.29348 15 6.30165 15C 6.30982 15 6.31799 15 6.32616 15C 6.33432 15 6.34249 15 6.35065 15C 6.35882 15 6.36698 15 6.37514 15C 6.3833 15 6.39145 15 6.39961 15C 6.40776 15 6.41592 15 6.42407 15C 6.43222 15 6.44037 15 6.44852 15C 6.45667 15 6.46481 15 6.47296 15C 6.4811 15 6.48925 15 6.49739 15C 6.50553 15 6.51367 15 6.52181 15C 6.52994 15 6.53808 15 6.54621 15C 6.55435 15 6.56248 15 6.57061 15C 6.57874 15 6.58687 15 6.595 15C 6.60312 15 6.61125 15 6.61937 15C 6.6275 15 6.63562 15 6.64374 15C 6.65186 15 6.65998 15 6.6681 15C 6.67621 15 6.68433 15 6.69244 15C 6.70056 15 6.70867 15 6.71678 15C 6.72489 15 6.733 15 6.74111 15C 6.74921 15 6.75732 15 6.76542 15C 6.77353 15 6.78163 15 6.78973 15C 6.79784 15 6.80594 15 6.81403 15C 6.82213 15 6.83023 15 6.83832 15C 6.84642 15 6.85451 15 6.86261 15C 6.8707 15 6.87879 15 6.88688 15C 6.89497 15 6.90306 15 6.91114 15C 6.91923 15 6.92732 15 6.9354 15C 6.94348 15 6.95157 15 6.95965 15C 6.96773 15 6.97581 15 6.98389 15C 6.99197 15 7.00004 15 7.00812 15C 7.01619 15 7.02427 15 7.03234 15C 7.04042 15 7.04849 15 7.05656 15C 7.06463 15 7.0727 15 7.08077 15C 7.08883 15 7.0969 15 7.10497 15C 7.11303 15 7.1211 15 7.12916 15C 7.13722 15 7.14528 15 7.15334 15C 7.1614 15 7.16946 15 7.17752 15C 7.18558 15 7.19364 15 7.20169 15C 7.20975 15 7.2178 15 7.22586 15C 7.23391 15 7.24196 15 7.25001 15C 7.25807 15 7.26612 15 7.27417 15C 7.28221 15 7.29026 15 7.29831 15C 7.30636 15 7.3144 15 7.32245 15C 7.33049 15 7.33854 15 7.34658 15C 7.35462 15 7.36266 15 7.3707 15C 7.37875 15 7.38678 15 7.39482 15C 7.40286 15 7.4109 15 7.41894 15C 7.42697 15 7.43501 15 7.44304 15C 7.45108 15 7.45911 15 7.46715 15C 7.47518 15 7.48321 15 7.49124 15C 7.49927 15 7.5073 15 7.51533 15C 7.52336 15 7.53139 15 7.53942 15C 7.54745 15 7.55547 15 7.5635 15C 7.57153 15 7.57955 15 7.58758 15C 7.5956 15 7.60362 15 7.61165 15C 7.61967 15 7.62769 15 7.63571 15C 7.64373 15 7.65175 15 7.65977 15C 7.66779 15 7.67581 15 7.68383 15C 7.69185 15 7.69987 15 7.70788 15C 7.7159 15 7.72392 15 7.73193 15C 7.73995 15 7.74796 15 7.75597 15C 7.76399 15 7.772 15 7.78001 15C 7.78803 15 7.79604 15 7.80405 15C 7.81206 15 7.82007 15 7.82808 15C 7.83609 15 7.8441 15 7.85211 15C 7.86012 15 7.86813 15 7.87614 15C 7.88415 15 7.89215 15 7.90016 15C 7.90817 15 7.91617 15 7.92418 15C 7.93218 15 7.94019 15 7.94819 15C 7.9562 15 7.9642 15 7.97221 15C 7.98021 15 7.98821 15 7.99622 15C 8.00422 15 8.01222 15 8.02022 15C 8.02823 15 8.03623 15 8.04423 15C 8.05223 15 8.06023 15 8.06823 15C 8.07623 15 8.08423 15 8.09223 15C 8.10023 15 8.10823 15 8.11623 15C 8.12423 15 8.13223 15 8.14022 15C 8.14822 15 8.15622 15 8.16422 15C 8.17222 15 8.18021 15 8.18821 15C 8.19621 15 8.2042 15 8.2122 15C 8.2202 15 8.22819 15 8.23619 15C 8.24419 15 8.25218 15 8.26018 15C 8.26817 15 8.27617 15 8.28416 15C 8.29216 15 8.30015 15 8.30815 15C 8.31614 15 8.32414 15 8.33213 15C 8.34013 15 8.34812 15 8.35611 15C 8.36411 15 8.3721 15 8.3801 15C 8.38809 15 8.39608 15 8.40408 15C 8.41207 15 8.42007 15 8.42806 15C 8.43605 15 8.44405 15 8.45204 15C 8.46003 15 8.46803 15 8.47602 15C 8.48401 15 8.49201 15 8.5 15C 8.50799 15 8.51599 15 8.52398 15C 8.53197 15 8.53997 15 8.54796 15C 8.55595 15 8.56395 15 8.57194 15C 8.57994 15 8.58793 15 8.59592 15C 8.60392 15 8.61191 15 8.6199 15C 8.6279 15 8.63589 15 8.64389 15C 8.65188 15 8.65987 15 8.66787 15C 8.67586 15 8.68386 15 8.69185 15C 8.69985 15 8.70784 15 8.71584 15C 8.72383 15 8.73183 15 8.73982 15C 8.74782 15 8.75582 15 8.76381 15C 8.77181 15 8.7798 15 8.7878 15C 8.7958 15 8.80379 15 8.81179 15C 8.81979 15 8.82778 15 8.83578 15C 8.84378 15 8.85178 15 8.85978 15C 8.86777 15 8.87577 15 8.88377 15C 8.89177 15 8.89977 15 8.90777 15C 8.91577 15 8.92377 15 8.93177 15C 8.93977 15 8.94777 15 8.95577 15C 8.96377 15 8.97177 15 8.97978 15C 8.98778 15 8.99578 15 9.00378 15C 9.01179 15 9.01979 15 9.02779 15C 9.0358 15 9.0438 15 9.05181 15C 9.05981 15 9.06782 15 9.07582 15C 9.08383 15 9.09183 15 9.09984 15C 9.10785 15 9.11585 15 9.12386 15C 9.13187 15 9.13988 15 9.14789 15C 9.1559 15 9.16391 15 9.17192 15C 9.17993 15 9.18794 15 9.19595 15C 9.20396 15 9.21197 15 9.21999 15C 9.228 15 9.23601 15 9.24403 15C 9.25204 15 9.26005 15 9.26807 15C 9.27609 15 9.2841 15 9.29212 15C 9.30013 15 9.30815 15 9.31617 15C 9.32419 15 9.33221 15 9.34023 15C 9.34825 15 9.35627 15 9.36429 15C 9.37231 15 9.38033 15 9.38835 15C 9.39638 15 9.4044 15 9.41242 15C 9.42045 15 9.42847 15 9.4365 15C 9.44453 15 9.45255 15 9.46058 15C 9.46861 15 9.47664 15 9.48467 15C 9.4927 15 9.50073 15 9.50876 15C 9.51679 15 9.52482 15 9.53285 15C 9.54089 15 9.54892 15 9.55696 15C 9.56499 15 9.57303 15 9.58106 15C 9.5891 15 9.59714 15 9.60518 15C 9.61322 15 9.62126 15 9.6293 15C 9.63734 15 9.64538 15 9.65342 15C 9.66146 15 9.66951 15 9.67755 15C 9.6856 15 9.69364 15 9.70169 15C 9.70974 15 9.71779 15 9.72583 15C 9.73388 15 9.74193 15 9.74999 15C 9.75804 15 9.76609 15 9.77414 15C 9.7822 15 9.79025 15 9.79831 15C 9.80636 15 9.81442 15 9.82248 15C 9.83054 15 9.8386 15 9.84666 15C 9.85472 15 9.86278 15 9.87084 15C 9.8789 15 9.88697 15 9.89503 15C 9.9031 15 9.91117 15 9.91923 15C 9.9273 15 9.93537 15 9.94344 15C 9.95151 15 9.95959 15 9.96766 15C 9.97573 15 9.98381 15 9.99188 15C 9.99996 15 10.008 15 10.0161 15C 10.0242 15 10.0323 15 10.0404 15C 10.0484 15 10.0565 15 10.0646 15C 10.0727 15 10.0808 15 10.0889 15C 10.0969 15 10.105 15 10.1131 15C 10.1212 15 10.1293 15 10.1374 15C 10.1455 15 10.1536 15 10.1617 15C 10.1698 15 10.1779 15 10.186 15C 10.1941 15 10.2022 15 10.2103 15C 10.2184 15 10.2265 15 10.2346 15C 10.2427 15 10.2508 15 10.2589 15C 10.267 15 10.2751 15 10.2832 15C 10.2913 15 10.2994 15 10.3076 15C 10.3157 15 10.3238 15 10.3319 15C 10.34 15 10.3481 15 10.3563 15C 10.3644 15 10.3725 15 10.3806 15C 10.3888 15 10.3969 15 10.405 15C 10.4131 15 10.4213 15 10.4294 15C 10.4375 15 10.4457 15 10.4538 15C 10.4619 15 10.4701 15 10.4782 15C 10.4863 15 10.4945 15 10.5026 15C 10.5108 15 10.5189 15 10.527 15C 10.5352 15 10.5433 15 10.5515 15C 10.5596 15 10.5678 15 10.5759 15C 10.5841 15 10.5922 15 10.6004 15C 10.6085 15 10.6167 15 10.6249 15C 10.633 15 10.6412 15 10.6493 15C 10.6575 15 10.6657 15 10.6738 15C 10.682 15 10.6902 15 10.6983 15C 10.7065 15 10.7147 15 10.7229 15C 10.731 15 10.7392 15 10.7474 15C 10.7556 15 10.7638 15 10.7719 15C 10.7801 15 10.7883 15 10.7965 15C 10.8047 15 10.8129 15 10.8211 15C 10.8293 15 10.8374 15 10.8456 15C 10.8538 15 10.862 15 10.8702 15C 10.8784 15 10.8866 15 10.8948 15C 10.903 15 10.9112 15 10.9195 15C 10.9277 15 10.9359 15 10.9441 15C 10.9523 15 10.9605 15 10.9687 15C 10.9769 15 10.9852 15 10.9934 15C 11.0016 15 11.0098 15 11.018 15C 11.0263 15 11.0345 15 11.0427 15C 11.051 15 11.0592 15 11.0674 15C 11.0757 15 11.0839 15 11.0921 15C 11.1004 15 11.1086 15 11.1169 15C 11.1251 15 11.1333 15 11.1416 15C 11.1498 15 11.1581 15 11.1663 15C 11.1746 15 11.1829 15 11.1911 15C 11.1994 15 11.2076 15 11.2159 15C 11.2242 15 11.2324 15 11.2407 15C 11.249 15 11.2572 15 11.2655 15C 11.2738 15 11.282 15 11.2903 15C 11.2986 15 11.3069 15 11.3152 15C 11.3234 15 11.3317 15 11.34 15C 11.3483 15 11.3566 15 11.3649 15C 11.3732 15 11.3815 15 11.3898 15C 11.3981 15 11.4064 15 11.4147 15C 11.423 15 11.4313 15 11.4396 15C 11.4479 15 11.4562 15 11.4645 15C 11.4728 15 11.4811 15 11.4894 15C 11.4978 15 11.5061 15 11.5144 15C 11.5227 15 11.5311 15 11.5394 15C 11.5477 15 11.556 15 11.5644 15C 11.5727 15 11.581 15 11.5894 15C 11.5977 15 11.6061 15 11.6144 15C 11.6228 15 11.6311 15 11.6395 15C 11.6478 15 11.6562 15 11.6645 15C 11.6729 15 11.6812 15 11.6896 15C 11.6979 15 11.7063 15 11.7147 15C 11.723 15 11.7314 15 11.7398 15C 11.7482 15 11.7565 15 11.7649 15C 11.7733 15 11.7817 15 11.7901 15C 11.7984 15 11.8068 15 11.8152 15C 11.8236 15 11.832 15 11.8404 15C 11.8488 15 11.8572 15 11.8656 15C 11.874 15 11.8824 15 11.8908 15C 11.8992 15 11.9076 15 11.916 15C 11.9244 15 11.9329 15 11.9413 15C 11.9497 15 11.9581 15 11.9666 15C 11.975 15 11.9834 15 11.9918 15C 12.0003 15 12.0087 15 12.0171 15C 12.0256 15 12.034 15 12.0425 15C 12.0509 15 12.0594 15 12.0678 15C 12.0763 15 12.0847 15 12.0932 15C 12.1016 15 12.1101 15 12.1185 15C 12.127 15 12.1355 15 12.1439 15C 12.1524 15 12.1609 15 12.1694 15C 12.1778 15 12.1863 15 12.1948 15C 12.2033 15 12.2118 15 12.2202 15C 12.2287 15 12.2372 15 12.2457 15C 12.2542 15 12.2627 15 12.2712 15C 12.2797 15 12.2882 15 12.2967 15C 12.3052 15 12.3138 15 12.3223 15C 12.3308 15 12.3393 15 12.3478 15C 12.3563 15 12.3649 15 12.3734 15C 12.3819 15 12.3905 15 12.399 15C 12.4075 15 12.4161 15 12.4246 15C 12.4332 15 12.4417 15 12.4502 15C 12.4588 15 12.4673 15 12.4759 15C 12.4845 15 12.493 15 12.5016 15C 12.5101 15 12.5187 15 12.5273 15C 12.5358 15 12.5444 15 12.553 15C 12.5616 15 12.5702 15 12.5787 15C 12.5873 15 12.5959 15 12.6045 15C 12.6131 15 12.6217 15 12.6303 15C 12.6389 15 12.6475 15 12.6561 15C 12.6647 15 12.6733 15 12.6819 15C 12.6905 15 12.6991 15 12.7078 15C 12.7164 15 12.725 15 12.7336 15C 12.7423 15 12.7509 15 12.7595 15C 12.7682 15 12.7768 15 12.7854 15C 12.7941 15 12.8027 15 12.8114 15C 12.82 15 12.8287 15 12.8373 15C 12.846 15 12.8547 15 12.8633 15C 12.872 15 12.8807 15 12.8893 15C 12.898 15 12.9067 15 12.9154 15C 12.924 15 12.9327 15 12.9414 15C 12.9501 15 12.9588 15 12.9675 15C 12.9762 15 12.9849 15 12.9936 15C 13.0023 15 13.011 15 13.0197 15C 13.0284 15 13.0371 15 13.0459 15C 13.0546 15 13.0633 15 13.072 15C 13.0807 15 13.0895 15 13.0982 15C 13.1069 15 13.1157 15 13.1244 15C 13.1332 15 13.1419 15 13.1507 15C 13.1594 15 13.1682 15 13.1769 15C 13.1857 15 13.1945 15 13.2032 15C 13.212 15 13.2208 15 13.2295 15C 13.2383 15 13.2471 15 13.2559 15C 13.2647 15 13.2734 15 13.2822 15C 13.291 15 13.2998 15 13.3086 15C 13.3174 15 13.3262 15 13.335 15C 13.3438 15 13.3527 15 13.3615 15C 13.3703 15 13.3791 15 13.3879 15C 13.3968 15 13.4056 15 13.4144 15C 13.4233 15 13.4321 15 13.4409 15C 13.4498 15 13.4586 15 13.4675 15C 13.4763 15 13.4852 15 13.494 15C 13.5029 15 13.5118 15 13.5206 15C 13.5295 15 13.5384 15 13.5472 15C 13.5561 15 13.565 15 13.5739 15C 13.5828 15 13.5917 15 13.6006 15C 13.6095 15 13.6184 15 13.6273 15C 13.6362 15 13.6451 15 13.654 15C 13.6629 15 13.6718 15 13.6807 15C 13.6896 15 13.6986 15 13.7075 15C 13.7164 15 13.7254 15 13.7343 15C 13.7432 15 13.7522 15 13.7611 15C 13.7701 15 13.779 15 13.788 15C 13.7969 15 13.8059 15 13.8149 15C 13.8238 15 13.8328 15 13.8418 15C 13.8508 15 13.8597 15 13.8687 15C 13.8777 15 13.8867 15 13.8957 15C 13.9047 15 13.9137 15 13.9227 15C 13.9317 15 13.9407 15 13.9497 15C 13.9587 15 13.9677 15 13.9767 15C 13.9858 15 13.9948 15 14.0038 15C 14.0129 15 14.0219 15 14.0309 15C 14.04 15 14.049 15 14.0581 15C 14.0671 15 14.0762 15 14.0852 15C 14.0943 15 14.1034 15 14.1124 15C 14.1215 15 14.1306 15 14.1396 15C 14.1487 15 14.1578 15 14.1669 15C 14.176 15 14.1851 15 14.1942 15C 14.2033 15 14.2124 15 14.2215 15C 14.2306 15 14.2397 15 14.2488 15C 14.2579 15 14.2671 15 14.2762 15C 14.2853 15 14.2944 15 14.3036 15C 14.3127 15 14.3219 15 14.331 15C 14.3401 15 14.3493 15 14.3585 15C 14.3676 15 14.3768 15 14.3859 15C 14.3951 15 14.4043 15 14.4135 15C 14.4226 15 14.4318 15 14.441 15C 14.4502 15 14.4594 15 14.4686 15C 14.4778 15 14.487 15 14.4962 15C 14.5054 15 14.5146 15 14.5238 15C 14.533 15 14.5423 15 14.5515 15C 14.5607 15 14.5699 15 14.5792 15C 14.5884 15 14.5977 15 14.6069 15C 14.6162 15 14.6254 15 14.6347 15C 14.6439 15 14.6532 15 14.6625 15C 14.6717 15 14.681 15 14.6903 15C 14.6996 15 14.7089 15 14.7181 15C 14.7274 15 14.7367 15 14.746 15C 14.7553 15 14.7646 15 14.774 15C 14.7833 15 14.7926 15 14.8019 15C 14.8112 15 14.8206 15 14.8299 15C 14.8392 15 14.8486 15 14.8579 15C 14.8672 15 14.8766 15 14.8859 15C 14.8953 15 14.9047 15 14.914 15C 14.9234 15 14.9328 15 14.9421 15C 14.9515 15 14.9609 15 14.9703 15C 14.9797 15 14.9891 15 14.9985 15L 14.9985 11ZM 2 11.0003C 2 10.996 2 10.9917 2 10.9874C 2 10.983 2 10.9787 2 10.9744C 2 10.9701 2 10.9658 2 10.9615C 2 10.9571 2 10.9528 2 10.9485C 2 10.9441 2 10.9398 2 10.9354C 2 10.9311 2 10.9267 2 10.9224C 2 10.918 2 10.9136 2 10.9093C 2 10.9049 2 10.9005 2 10.8961C 2 10.8918 2 10.8874 2 10.883C 2 10.8786 2 10.8742 2 10.8698C 2 10.8654 2 10.861 2 10.8566C 2 10.8522 2 10.8477 2 10.8433C 2 10.8389 2 10.8345 2 10.83C 2 10.8256 2 10.8212 2 10.8167C 2 10.8123 2 10.8078 2 10.8034C 2 10.7989 2 10.7944 2 10.79C 2 10.7855 2 10.781 2 10.7766C 2 10.7721 2 10.7676 2 10.7631C 2 10.7586 2 10.7541 2 10.7496C 2 10.7451 2 10.7406 2 10.7361C 2 10.7316 2 10.7271 2 10.7226C 2 10.7181 2 10.7136 2 10.709C 2 10.7045 2 10.7 2 10.6954C 2 10.6909 2 10.6863 2 10.6818C 2 10.6772 2 10.6727 2 10.6681C 2 10.6636 2 10.659 2 10.6544C 2 10.6499 2 10.6453 2 10.6407C 2 10.6361 2 10.6315 2 10.6269C 2 10.6224 2 10.6178 2 10.6132C 2 10.6086 2 10.604 2 10.5993C 2 10.5947 2 10.5901 2 10.5855C 2 10.5809 2 10.5762 2 10.5716C 2 10.567 2 10.5623 2 10.5577C 2 10.5531 2 10.5484 2 10.5438C 2 10.5391 2 10.5345 2 10.5298C 2 10.5251 2 10.5205 2 10.5158C 2 10.5111 2 10.5065 2 10.5018C 2 10.4971 2 10.4924 2 10.4877C 2 10.483 2 10.4783 2 10.4736C 2 10.4689 2 10.4642 2 10.4595C 2 10.4548 2 10.4501 2 10.4454C 2 10.4406 2 10.4359 2 10.4312C 2 10.4265 2 10.4217 2 10.417C 2 10.4122 2 10.4075 2 10.4027C 2 10.398 2 10.3932 2 10.3885C 2 10.3837 2 10.379 2 10.3742C 2 10.3694 2 10.3646 2 10.3599C 2 10.3551 2 10.3503 2 10.3455C 2 10.3407 2 10.3359 2 10.3311C 2 10.3263 2 10.3215 2 10.3167C 2 10.3119 2 10.3071 2 10.3023C 2 10.2975 2 10.2926 2 10.2878C 2 10.283 2 10.2781 2 10.2733C 2 10.2685 2 10.2636 2 10.2588C 2 10.2539 2 10.2491 2 10.2442C 2 10.2394 2 10.2345 2 10.2297C 2 10.2248 2 10.2199 2 10.215C 2 10.2102 2 10.2053 2 10.2004C 2 10.1955 2 10.1906 2 10.1857C 2 10.1809 2 10.176 2 10.1711C 2 10.1661 2 10.1612 2 10.1563C 2 10.1514 2 10.1465 2 10.1416C 2 10.1367 2 10.1317 2 10.1268C 2 10.1219 2 10.1169 2 10.112C 2 10.1071 2 10.1021 2 10.0972C 2 10.0922 2 10.0873 2 10.0823C 2 10.0774 2 10.0724 2 10.0674C 2 10.0625 2 10.0575 2 10.0525C 2 10.0475 2 10.0426 2 10.0376C 2 10.0326 2 10.0276 2 10.0226C 2 10.0176 2 10.0126 2 10.0076C 2 10.0026 2 9.9976 2 9.99259C 2 9.98758 2 9.98256 2 9.97754C 2 9.97252 2 9.96749 2 9.96246C 2 9.95743 2 9.9524 2 9.94736C 2 9.94232 2 9.93728 2 9.93223C 2 9.92719 2 9.92213 2 9.91708C 2 9.91202 2 9.90696 2 9.9019C 2 9.89683 2 9.89176 2 9.88669C 2 9.88162 2 9.87654 2 9.87146C 2 9.86637 2 9.86129 2 9.8562C 2 9.85111 2 9.84601 2 9.84091C 2 9.83581 2 9.83071 2 9.8256C 2 9.82049 2 9.81538 2 9.81026C 2 9.80514 2 9.80002 2 9.7949C 2 9.78977 2 9.78464 2 9.77951C 2 9.77437 2 9.76924 2 9.76409C 2 9.75895 2 9.7538 2 9.74865C 2 9.7435 2 9.73835 2 9.73319C 2 9.72803 2 9.72286 2 9.7177C 2 9.71253 2 9.70736 2 9.70218C 2 9.697 2 9.69182 2 9.68664C 2 9.68145 2 9.67626 2 9.67107C 2 9.66588 2 9.66068 2 9.65548C 2 9.65028 2 9.64507 2 9.63986C 2 9.63465 2 9.62944 2 9.62422C 2 9.619 2 9.61378 2 9.60855C 2 9.60333 2 9.5981 2 9.59286C 2 9.58763 2 9.58239 2 9.57715C 2 9.57191 2 9.56666 2 9.56141C 2 9.55616 2 9.5509 2 9.54564C 2 9.54038 2 9.53512 2 9.52985C 2 9.52459 2 9.51932 2 9.51404C 2 9.50877 2 9.50349 2 9.4982C 2 9.49292 2 9.48763 2 9.48234C 2 9.47705 2 9.47176 2 9.46646C 2 9.46116 2 9.45586 2 9.45055C 2 9.44524 2 9.43993 2 9.43462C 2 9.4293 2 9.42398 2 9.41866C 2 9.41334 2 9.40801 2 9.40268C 2 9.39735 2 9.39201 2 9.38667C 2 9.38134 2 9.37599 2 9.37065C 2 9.3653 2 9.35995 2 9.3546C 2 9.34924 2 9.34388 2 9.33852C 2 9.33316 2 9.32779 2 9.32242C 2 9.31706 2 9.31168 2 9.3063C 2 9.30093 2 9.29555 2 9.29016C 2 9.28478 2 9.27939 2 9.27399C 2 9.2686 2 9.26321 2 9.25781C 2 9.2524 2 9.247 2 9.24159C 2 9.23619 2 9.23077 2 9.22536C 2 9.21994 2 9.21452 2 9.2091C 2 9.20368 2 9.19825 2 9.19282C 2 9.18739 2 9.18196 2 9.17652C 2 9.17108 2 9.16564 2 9.16019C 2 9.15475 2 9.1493 2 9.14385C 2 9.13839 2 9.13294 2 9.12748C 2 9.12202 2 9.11655 2 9.11109C 2 9.10562 2 9.10015 2 9.09467C 2 9.0892 2 9.08372 2 9.07824C 2 9.07276 2 9.06727 2 9.06178C 2 9.05629 2 9.0508 2 9.0453C 2 9.03981 2 9.03431 2 9.0288C 2 9.0233 2 9.01779 2 9.01228C 2 9.00677 2 9.00125 2 8.99574C 2 8.99022 2 8.9847 2 8.97917C 2 8.97365 2 8.96812 2 8.96258C 2 8.95705 2 8.95152 2 8.94598C 2 8.94044 2 8.93489 2 8.92935C 2 8.9238 2 8.91825 2 8.9127C 2 8.90715 2 8.90159 2 8.89603C 2 8.89047 2 8.8849 2 8.87934C 2 8.87377 2 8.8682 2 8.86262C 2 8.85705 2 8.85147 2 8.84589C 2 8.84031 2 8.83472 2 8.82914C 2 8.82355 2 8.81796 2 8.81236C 2 8.80677 2 8.80117 2 8.79557C 2 8.78997 2 8.78436 2 8.77875C 2 8.77314 2 8.76753 2 8.76192C 2 8.7563 2 8.75068 2 8.74506C 2 8.73944 2 8.73381 2 8.72819C 2 8.72256 2 8.71692 2 8.71129C 2 8.70565 2 8.70002 2 8.69437C 2 8.68873 2 8.68309 2 8.67744C 2 8.67179 2 8.66614 2 8.66048C 2 8.65483 2 8.64917 2 8.64351C 2 8.63785 2 8.63218 2 8.62651C 2 8.62084 2 8.61517 2 8.6095C 2 8.60382 2 8.59815 2 8.59246C 2 8.58678 2 8.5811 2 8.57541C 2 8.56972 2 8.56403 2 8.55834C 2 8.55265 2 8.54695 2 8.54125C 2 8.53555 2 8.52984 2 8.52414C 2 8.51843 2 8.51272 2 8.50701C 2 8.50129 2 8.49558 2 8.48986C 2 8.48414 2 8.47842 2 8.47269C 2 8.46697 2 8.46124 2 8.45551C 2 8.44977 2 8.44404 2 8.4383C 2 8.43256 2 8.42682 2 8.42108C 2 8.41533 2 8.40959 2 8.40384C 2 8.39808 2 8.39233 2 8.38657C 2 8.38082 2 8.37506 2 8.3693C 2 8.36353 2 8.35777 2 8.352C 2 8.34623 2 8.34046 2 8.33468C 2 8.32891 2 8.32313 2 8.31735C 2 8.31157 2 8.30579 2 8.3C 2 8.29421 2 8.28842 2 8.28263C 2 8.27684 2 8.27104 2 8.26524C 2 8.25945 2 8.25364 2 8.24784C 2 8.24204 2 8.23623 2 8.23042C 2 8.22461 2 8.21879 2 8.21298C 2 8.20716 2 8.20134 2 8.19552C 2 8.1897 2 8.18387 2 8.17805C 2 8.17222 2 8.16639 2 8.16056C 2 8.15472 2 8.14889 2 8.14305C 2 8.13721 2 8.13137 2 8.12552C 2 8.11968 2 8.11383 2 8.10798C 2 8.10213 2 8.09627 2 8.09042C 2 8.08456 2 8.0787 2 8.07284C 2 8.06698 2 8.06111 2 8.05525C 2 8.04938 2 8.04351 2 8.03764C 2 8.03176 2 8.02589 2 8.02001C 2 8.01413 2 8.00825 2 8.00237C 2 7.99648 2 7.9906 2 7.98471C 2 7.97882 2 7.97292 2 7.96703C 2 7.96113 2 7.95524 2 7.94934C 2 7.94344 2 7.93753 2 7.93163C 2 7.92572 2 7.91981 2 7.9139C 2 7.90799 2 7.90208 2 7.89616C 2 7.89025 2 7.88433 2 7.87841C 2 7.87248 2 7.86656 2 7.86063C 2 7.85471 2 7.84878 2 7.84284C 2 7.83691 2 7.83098 2 7.82504C 2 7.8191 2 7.81316 2 7.80722C 2 7.80128 2 7.79533 2 7.78939C 2 7.78344 2 7.77749 2 7.77154C 2 7.76558 2 7.75963 2 7.75367C 2 7.74771 2 7.74175 2 7.73579C 2 7.72983 2 7.72386 2 7.71789C 2 7.71193 2 7.70595 2 7.69998C 2 7.69401 2 7.68803 2 7.68206C 2 7.67608 2 7.6701 2 7.66411C 2 7.65813 2 7.65215 2 7.64616C 2 7.64017 2 7.63418 2 7.62819C 2 7.6222 2 7.6162 2 7.6102C 2 7.60421 2 7.59821 2 7.5922C 2 7.5862 2 7.5802 2 7.57419C 2 7.56818 2 7.56217 2 7.55616C 2 7.55015 2 7.54413 2 7.53812C 2 7.5321 2 7.52608 2 7.52006C 2 7.51404 2 7.50802 2 7.50199C 2 7.49596 2 7.48994 2 7.4839C 2 7.47787 2 7.47184 2 7.46581C 2 7.45977 2 7.45373 2 7.44769C 2 7.44165 2 7.43561 2 7.42957C 2 7.42352 2 7.41747 2 7.41143C 2 7.40538 2 7.39932 2 7.39327C 2 7.38722 2 7.38116 2 7.3751C 2 7.36905 2 7.36299 2 7.35692C 2 7.35086 2 7.3448 2 7.33873C 2 7.33266 2 7.32659 2 7.32052C 2 7.31445 2 7.30838 2 7.3023C 2 7.29622 2 7.29015 2 7.28407C 2 7.27799 2 7.2719 2 7.26582C 2 7.25973 2 7.25365 2 7.24756C 2 7.24147 2 7.23538 2 7.22929C 2 7.22319 2 7.2171 2 7.211C 2 7.2049 2 7.19881 2 7.1927C 2 7.1866 2 7.1805 2 7.17439C 2 7.16829 2 7.16218 2 7.15607C 2 7.14996 2 7.14385 2 7.13773C 2 7.13162 2 7.12551 2 7.11939C 2 7.11327 2 7.10715 2 7.10103C 2 7.09491 2 7.08878 2 7.08266C 2 7.07653 2 7.0704 2 7.06427C 2 7.05814 2 7.05201 2 7.04587C 2 7.03974 2 7.0336 2 7.02747C 2 7.02133 2 7.01519 2 7.00905C 2 7.00291 2 6.99676 2 6.99062C 2 6.98447 2 6.97832 2 6.97217C 2 6.96602 2 6.95987 2 6.95372C 2 6.94756 2 6.94141 2 6.93525C 2 6.92909 2 6.92294 2 6.91677C 2 6.91061 2 6.90445 2 6.89829C 2 6.89212 2 6.88595 2 6.87979C 2 6.87362 2 6.86745 2 6.86127C 2 6.8551 2 6.84893 2 6.84275C 2 6.83658 2 6.8304 2 6.82422C 2 6.81804 2 6.81186 2 6.80568C 2 6.79949 2 6.79331 2 6.78712C 2 6.78093 2 6.77475 2 6.76856C 2 6.76237 2 6.75617 2 6.74998C 2 6.74379 2 6.73759 2 6.73139C 2 6.7252 2 6.719 2 6.7128C 2 6.7066 2 6.70039 2 6.69419C 2 6.68799 2 6.68178 2 6.67557C 2 6.66936 2 6.66316 2 6.65694C 2 6.65073 2 6.64452 2 6.63831C 2 6.63209 2 6.62588 2 6.61966C 2 6.61344 2 6.60722 2 6.601C 2 6.59478 2 6.58856 2 6.58233C 2 6.57611 2 6.56988 2 6.56366C 2 6.55743 2 6.5512 2 6.54497C 2 6.53874 2 6.53251 2 6.52627C 2 6.52004 2 6.5138 2 6.50757C 2 6.50133 2 6.49509 2 6.48885C 2 6.48261 2 6.47637 2 6.47013C 2 6.46388 2 6.45764 2 6.45139C 2 6.44515 2 6.4389 2 6.43265C 2 6.4264 2 6.42015 2 6.4139C 2 6.40765 2 6.40139 2 6.39514C 2 6.38888 2 6.38263 2 6.37637C 2 6.37011 2 6.36385 2 6.35759C 2 6.35133 2 6.34507 2 6.3388C 2 6.33254 2 6.32627 2 6.32001C 2 6.31374 2 6.30747 2 6.3012C 2 6.29493 2 6.28866 2 6.28239C 2 6.27612 2 6.26984 2 6.26357C 2 6.25729 2 6.25102 2 6.24474C 2 6.23846 2 6.23218 2 6.2259C 2 6.21962 2 6.21334 2 6.20706C 2 6.20077 2 6.19449 2 6.1882C 2 6.18192 2 6.17563 2 6.16934C 2 6.16305 2 6.15676 2 6.15047C 2 6.14418 2 6.13789 2 6.13159C 2 6.1253 2 6.119 2 6.11271C 2 6.10641 2 6.10011 2 6.09382C 2 6.08752 2 6.08122 2 6.07492C 2 6.06861 2 6.06231 2 6.05601C 2 6.0497 2 6.0434 2 6.03709C 2 6.03079 2 6.02448 2 6.01817C 2 6.01186 2 6.00555 2 5.99924C 2 5.99293 2 5.98662 2 5.9803C 2 5.97399 2 5.96768 2 5.96136C 2 5.95505 2 5.94873 2 5.94241C 2 5.93609 2 5.92977 2 5.92345C 2 5.91713 2 5.91081 2 5.90449C 2 5.89817 2 5.89184 2 5.88552C 2 5.8792 2 5.87287 2 5.86654C 2 5.86022 2 5.85389 2 5.84756C 2 5.84123 2 5.8349 2 5.82857C 2 5.82224 2 5.81591 2 5.80957C 2 5.80324 2 5.79691 2 5.79057C 2 5.78424 2 5.7779 2 5.77156C 2 5.76523 2 5.75889 2 5.75255C 2 5.74621 2 5.73987 2 5.73353C 2 5.72719 2 5.72084 2 5.7145C 2 5.70816 2 5.70181 2 5.69547C 2 5.68912 2 5.68278 2 5.67643C 2 5.67008 2 5.66374 2 5.65739C 2 5.65104 2 5.64469 2 5.63834C 2 5.63199 2 5.62564 2 5.61928C 2 5.61293 2 5.60658 2 5.60022C 2 5.59387 2 5.58751 2 5.58116C 2 5.5748 2 5.56845 2 5.56209C 2 5.55573 2 5.54937 2 5.54301C 2 5.53665 2 5.53029 2 5.52393C 2 5.51757 2 5.51121 2 5.50485C 2 5.49848 2 5.49212 2 5.48576C 2 5.47939 2 5.47303 2 5.46666C 2 5.4603 2 5.45393 2 5.44756C 2 5.4412 2 5.43483 2 5.42846C 2 5.42209 2 5.41572 2 5.40935C 2 5.40298 2 5.39661 2 5.39024C 2 5.38387 2 5.37749 2 5.37112C 2 5.36475 2 5.35837 2 5.352C 2 5.34562 2 5.33925 2 5.33287C 2 5.3265 2 5.32012 2 5.31374C 2 5.30736 2 5.30099 2 5.29461C 2 5.28823 2 5.28185 2 5.27547C 2 5.26909 2 5.26271 2 5.25633C 2 5.24995 2 5.24357 2 5.23718C 2 5.2308 2 5.22442 2 5.21803C 2 5.21165 2 5.20527 2 5.19888C 2 5.1925 2 5.18611 2 5.17973C 2 5.17334 2 5.16695 2 5.16057C 2 5.15418 2 5.14779 2 5.1414C 2 5.13502 2 5.12863 2 5.12224C 2 5.11585 2 5.10946 2 5.10307C 2 5.09668 2 5.09029 2 5.0839C 2 5.07751 2 5.07111 2 5.06472C 2 5.05833 2 5.05194 2 5.04554C 2 5.03915 2 5.03276 2 5.02636C 2 5.01997 2 5.01358 2 5.00718C 2 5.00079 2 4.99439 2 4.98799C 2 4.9816 2 4.9752 2 4.96881C 2 4.96241 2 4.95601 2 4.94962C 2 4.94322 2 4.93682 2 4.93042C 2 4.92402 2 4.91763 2 4.91123C 2 4.90483 2 4.89843 2 4.89203C 2 4.88563 2 4.87923 2 4.87283C 2 4.86643 2 4.86003 2 4.85363C 2 4.84723 2 4.84082 2 4.83442C 2 4.82802 2 4.82162 2 4.81522C 2 4.80882 2 4.80241 2 4.79601C 2 4.78961 2 4.7832 2 4.7768C 2 4.7704 2 4.76399 2 4.75759C 2 4.75119 2 4.74478 2 4.73838C 2 4.73197 2 4.72557 2 4.71917C 2 4.71276 2 4.70636 2 4.69995C 2 4.69355 2 4.68714 2 4.68073C 2 4.67433 2 4.66792 2 4.66152C 2 4.65511 2 4.64871 2 4.6423C 2 4.63589 2 4.62949 2 4.62308C 2 4.61667 2 4.61027 2 4.60386C 2 4.59745 2 4.59105 2 4.58464C 2 4.57823 2 4.57182 2 4.56542C 2 4.55901 2 4.5526 2 4.54619C 2 4.53979 2 4.53338 2 4.52697C 2 4.52056 2 4.51416 2 4.50775C 2 4.50134 2 4.49493 2 4.48852C 2 4.48212 2 4.47571 2 4.4693C 2 4.46289 2 4.45648 2 4.45008C 2 4.44367 2 4.43726 2 4.43085C 2 4.42444 2 4.41804 2 4.41163C 2 4.40522 2 4.39881 2 4.3924C 2 4.386 2 4.37959 2 4.37318C 2 4.36677 2 4.36036 2 4.35396C 2 4.34755 2 4.34114 2 4.33473C 2 4.32832 2 4.32192 2 4.31551C 2 4.3091 2 4.30269 2 4.29629C 2 4.28988 2 4.28347 2 4.27706C 2 4.27066 2 4.26425 2 4.25784C 2 4.25144 2 4.24503 2 4.23862C 2 4.23221 2 4.22581 2 4.2194C 2 4.213 2 4.20659 2 4.20018C 2 4.19378 2 4.18737 2 4.18096C 2 4.17456 2 4.16815 2 4.16175C 2 4.15534 2 4.14894 2 4.14253C 2 4.13613 2 4.12972 2 4.12332C 2 4.11691 2 4.11051 2 4.1041C 2 4.0977 2 4.0913 2 4.08489C 2 4.07849 2 4.07209 2 4.06568C 2 4.05928 2 4.05288 2 4.04647C 2 4.04007 2 4.03367 2 4.02727C 2 4.02086 2 4.01446 2 4.00806C 2 4.00166 2 3.99526 2 3.98886C 2 3.98246 2 3.97606 2 3.96966C 2 3.96326 2 3.95686 2 3.95046C 2 3.94406 2 3.93766 2 3.93126C 2 3.92486 2 3.91846 2 3.91206C 2 3.90567 2 3.89927 2 3.89287C 2 3.88647 2 3.88008 2 3.87368C 2 3.86728 2 3.86089 2 3.85449C 2 3.8481 2 3.8417 2 3.83531C 2 3.82891 2 3.82252 2 3.81612C 2 3.80973 2 3.80334 2 3.79694C 2 3.79055 2 3.78416 2 3.77777C 2 3.77138 2 3.76498 2 3.75859C 2 3.7522 2 3.74581 2 3.73942C 2 3.73303 2 3.72664 2 3.72025C 2 3.71386 2 3.70748 2 3.70109C 2 3.6947 2 3.68831 2 3.68193C 2 3.67554 2 3.66915 2 3.66277C 2 3.65638 2 3.65 2 3.64361C 2 3.63723 2 3.63084 2 3.62446C 2 3.61808 2 3.61169 2 3.60531C 2 3.59893 2 3.59255 2 3.58617C 2 3.57979 2 3.57341 2 3.56703C 2 3.56065 2 3.55427 2 3.54789C 2 3.54151 2 3.53513 2 3.52876C 2 3.52238 2 3.516 2 3.50963C 2 3.50325 2 3.49688 2 3.4905C 2 3.48413 2 3.47775 2 3.47138C 2 3.46501 2 3.45864 2 3.45226C 2 3.44589 2 3.43952 2 3.43315C 2 3.42678 2 3.42041 2 3.41404C 2 3.40768 2 3.40131 2 3.39494C 2 3.38857 2 3.38221 2 3.37584C 2 3.36948 2 3.36311 2 3.35675C 2 3.35038 2 3.34402 2 3.33766C 2 3.3313 2 3.32493 2 3.31857C 2 3.31221 2 3.30585 2 3.29949C 2 3.29314 2 3.28678 2 3.28042C 2 3.27406 2 3.26771 2 3.26135C 2 3.255 2 3.24864 2 3.24229C 2 3.23593 2 3.22958 2 3.22323C 2 3.21688 2 3.21052 2 3.20417C 2 3.19782 2 3.19147 2 3.18513C 2 3.17878 2 3.17243 2 3.16608C 2 3.15974 2 3.15339 2 3.14705C 2 3.1407 2 3.13436 2 3.12802C 2 3.12167 2 3.11533 2 3.10899C 2 3.10265 2 3.09631 2 3.08997C 2 3.08363 2 3.07729 2 3.07096C 2 3.06462 2 3.05829 2 3.05195C 2 3.04562 2 3.03928 2 3.03295C 2 3.02662 2 3.02028 2 3.01395C 2 3.00762 2 3.00129 2 2.99497C 2 2.98864 2 2.98231 2 2.97598C 2 2.96966 2 2.96333 2 2.95701C 2 2.95068 2 2.94436 2 2.93804C 2 2.93172 2 2.9254 2 2.91908C 2 2.91276 2 2.90644 2 2.90012C 2 2.8938 2 2.88749 2 2.88117C 2 2.87486 2 2.86854 2 2.86223C 2 2.85592 2 2.8496 2 2.84329C 2 2.83698 2 2.83067 2 2.82437C 2 2.81806 2 2.81175 2 2.80544C 2 2.79914 2 2.79283 2 2.78653C 2 2.78023 2 2.77393 2 2.76763C 2 2.76132 2 2.75502 2 2.74873C 2 2.74243 2 2.73613 2 2.72984C 2 2.72354 2 2.71724 2 2.71095C 2 2.70466 2 2.69837 2 2.69208C 2 2.68578 2 2.6795 2 2.67321C 2 2.66692 2 2.66063 2 2.65435C 2 2.64806 2 2.64178 2 2.63549C 2 2.62921 2 2.62293 2 2.61665C 2 2.61037 2 2.60409 2 2.59781C 2 2.59154 2 2.58526 2 2.57899C 2 2.57271 2 2.56644 2 2.56017C 2 2.55389 2 2.54762 2 2.54136C 2 2.53509 2 2.52882 2 2.52255C 2 2.51629 2 2.51002 2 2.50376C 2 2.49749 2 2.49123 2 2.48497C 2 2.47871 2 2.47245 2 2.4662C 2 2.45994 2 2.45368 2 2.44743C 2 2.44117 2 2.43492 2 2.42867C 2 2.42242 2 2.41617 2 2.40992C 2 2.40367 2 2.39742 2 2.39118C 2 2.38493 2 2.37869 2 2.37244C 2 2.3662 2 2.35996 2 2.35372C 2 2.34748 2 2.34124 2 2.33501C 2 2.32877 2 2.32254 2 2.3163C 2 2.31007 2 2.30384 2 2.29761C 2 2.29138 2 2.28515 2 2.27892C 2 2.2727 2 2.26647 2 2.26025C 2 2.25403 2 2.2478 2 2.24158C 2 2.23536 2 2.22915 2 2.22293C 2 2.21671 2 2.2105 2 2.20428C 2 2.19807 2 2.19186 2 2.18565C 2 2.17944 2 2.17323 2 2.16702C 2 2.16081 2 2.15461 2 2.14841C 2 2.1422 2 2.136 2 2.1298C 2 2.1236 2 2.1174 2 2.11121C 2 2.10501 2 2.09881 2 2.09262C 2 2.08643 2 2.08024 2 2.07405C 2 2.06786 2 2.06167 2 2.05548C 2 2.0493 2 2.04311 2 2.03693C 2 2.03075 2 2.02457 2 2.01839C 2 2.01221 2 2.00603 2 1.99986L -2 1.99986C -2 2.00603 -2 2.01221 -2 2.01839C -2 2.02457 -2 2.03075 -2 2.03693C -2 2.04311 -2 2.0493 -2 2.05548C -2 2.06167 -2 2.06786 -2 2.07405C -2 2.08024 -2 2.08643 -2 2.09262C -2 2.09881 -2 2.10501 -2 2.11121C -2 2.1174 -2 2.1236 -2 2.1298C -2 2.136 -2 2.1422 -2 2.14841C -2 2.15461 -2 2.16081 -2 2.16702C -2 2.17323 -2 2.17944 -2 2.18565C -2 2.19186 -2 2.19807 -2 2.20428C -2 2.2105 -2 2.21671 -2 2.22293C -2 2.22915 -2 2.23536 -2 2.24158C -2 2.2478 -2 2.25403 -2 2.26025C -2 2.26647 -2 2.2727 -2 2.27892C -2 2.28515 -2 2.29138 -2 2.29761C -2 2.30384 -2 2.31007 -2 2.3163C -2 2.32254 -2 2.32877 -2 2.33501C -2 2.34124 -2 2.34748 -2 2.35372C -2 2.35996 -2 2.3662 -2 2.37244C -2 2.37869 -2 2.38493 -2 2.39118C -2 2.39742 -2 2.40367 -2 2.40992C -2 2.41617 -2 2.42242 -2 2.42867C -2 2.43492 -2 2.44117 -2 2.44743C -2 2.45368 -2 2.45994 -2 2.4662C -2 2.47245 -2 2.47871 -2 2.48497C -2 2.49123 -2 2.49749 -2 2.50376C -2 2.51002 -2 2.51629 -2 2.52255C -2 2.52882 -2 2.53509 -2 2.54136C -2 2.54762 -2 2.55389 -2 2.56017C -2 2.56644 -2 2.57271 -2 2.57899C -2 2.58526 -2 2.59154 -2 2.59781C -2 2.60409 -2 2.61037 -2 2.61665C -2 2.62293 -2 2.62921 -2 2.63549C -2 2.64178 -2 2.64806 -2 2.65435C -2 2.66063 -2 2.66692 -2 2.67321C -2 2.6795 -2 2.68578 -2 2.69208C -2 2.69837 -2 2.70466 -2 2.71095C -2 2.71724 -2 2.72354 -2 2.72984C -2 2.73613 -2 2.74243 -2 2.74873C -2 2.75502 -2 2.76132 -2 2.76763C -2 2.77393 -2 2.78023 -2 2.78653C -2 2.79283 -2 2.79914 -2 2.80544C -2 2.81175 -2 2.81806 -2 2.82437C -2 2.83067 -2 2.83698 -2 2.84329C -2 2.8496 -2 2.85592 -2 2.86223C -2 2.86854 -2 2.87486 -2 2.88117C -2 2.88749 -2 2.8938 -2 2.90012C -2 2.90644 -2 2.91276 -2 2.91908C -2 2.9254 -2 2.93172 -2 2.93804C -2 2.94436 -2 2.95068 -2 2.95701C -2 2.96333 -2 2.96966 -2 2.97598C -2 2.98231 -2 2.98864 -2 2.99497C -2 3.00129 -2 3.00762 -2 3.01395C -2 3.02028 -2 3.02662 -2 3.03295C -2 3.03928 -2 3.04562 -2 3.05195C -2 3.05829 -2 3.06462 -2 3.07096C -2 3.07729 -2 3.08363 -2 3.08997C -2 3.09631 -2 3.10265 -2 3.10899C -2 3.11533 -2 3.12167 -2 3.12802C -2 3.13436 -2 3.1407 -2 3.14705C -2 3.15339 -2 3.15974 -2 3.16608C -2 3.17243 -2 3.17878 -2 3.18513C -2 3.19147 -2 3.19782 -2 3.20417C -2 3.21052 -2 3.21688 -2 3.22323C -2 3.22958 -2 3.23593 -2 3.24229C -2 3.24864 -2 3.255 -2 3.26135C -2 3.26771 -2 3.27406 -2 3.28042C -2 3.28678 -2 3.29314 -2 3.29949C -2 3.30585 -2 3.31221 -2 3.31857C -2 3.32493 -2 3.3313 -2 3.33766C -2 3.34402 -2 3.35038 -2 3.35675C -2 3.36311 -2 3.36948 -2 3.37584C -2 3.38221 -2 3.38857 -2 3.39494C -2 3.40131 -2 3.40768 -2 3.41404C -2 3.42041 -2 3.42678 -2 3.43315C -2 3.43952 -2 3.44589 -2 3.45226C -2 3.45864 -2 3.46501 -2 3.47138C -2 3.47775 -2 3.48413 -2 3.4905C -2 3.49688 -2 3.50325 -2 3.50963C -2 3.516 -2 3.52238 -2 3.52876C -2 3.53513 -2 3.54151 -2 3.54789C -2 3.55427 -2 3.56065 -2 3.56703C -2 3.57341 -2 3.57979 -2 3.58617C -2 3.59255 -2 3.59893 -2 3.60531C -2 3.61169 -2 3.61808 -2 3.62446C -2 3.63084 -2 3.63723 -2 3.64361C -2 3.65 -2 3.65638 -2 3.66277C -2 3.66915 -2 3.67554 -2 3.68193C -2 3.68831 -2 3.6947 -2 3.70109C -2 3.70748 -2 3.71386 -2 3.72025C -2 3.72664 -2 3.73303 -2 3.73942C -2 3.74581 -2 3.7522 -2 3.75859C -2 3.76498 -2 3.77138 -2 3.77777C -2 3.78416 -2 3.79055 -2 3.79694C -2 3.80334 -2 3.80973 -2 3.81612C -2 3.82252 -2 3.82891 -2 3.83531C -2 3.8417 -2 3.8481 -2 3.85449C -2 3.86089 -2 3.86728 -2 3.87368C -2 3.88008 -2 3.88647 -2 3.89287C -2 3.89927 -2 3.90567 -2 3.91206C -2 3.91846 -2 3.92486 -2 3.93126C -2 3.93766 -2 3.94406 -2 3.95046C -2 3.95686 -2 3.96326 -2 3.96966C -2 3.97606 -2 3.98246 -2 3.98886C -2 3.99526 -2 4.00166 -2 4.00806C -2 4.01446 -2 4.02086 -2 4.02727C -2 4.03367 -2 4.04007 -2 4.04647C -2 4.05288 -2 4.05928 -2 4.06568C -2 4.07209 -2 4.07849 -2 4.08489C -2 4.0913 -2 4.0977 -2 4.1041C -2 4.11051 -2 4.11691 -2 4.12332C -2 4.12972 -2 4.13613 -2 4.14253C -2 4.14894 -2 4.15534 -2 4.16175C -2 4.16815 -2 4.17456 -2 4.18096C -2 4.18737 -2 4.19378 -2 4.20018C -2 4.20659 -2 4.213 -2 4.2194C -2 4.22581 -2 4.23221 -2 4.23862C -2 4.24503 -2 4.25144 -2 4.25784C -2 4.26425 -2 4.27066 -2 4.27706C -2 4.28347 -2 4.28988 -2 4.29629C -2 4.30269 -2 4.3091 -2 4.31551C -2 4.32192 -2 4.32832 -2 4.33473C -2 4.34114 -2 4.34755 -2 4.35396C -2 4.36036 -2 4.36677 -2 4.37318C -2 4.37959 -2 4.386 -2 4.3924C -2 4.39881 -2 4.40522 -2 4.41163C -2 4.41804 -2 4.42444 -2 4.43085C -2 4.43726 -2 4.44367 -2 4.45008C -2 4.45648 -2 4.46289 -2 4.4693C -2 4.47571 -2 4.48212 -2 4.48852C -2 4.49493 -2 4.50134 -2 4.50775C -2 4.51416 -2 4.52056 -2 4.52697C -2 4.53338 -2 4.53979 -2 4.54619C -2 4.5526 -2 4.55901 -2 4.56542C -2 4.57182 -2 4.57823 -2 4.58464C -2 4.59105 -2 4.59745 -2 4.60386C -2 4.61027 -2 4.61667 -2 4.62308C -2 4.62949 -2 4.63589 -2 4.6423C -2 4.64871 -2 4.65511 -2 4.66152C -2 4.66792 -2 4.67433 -2 4.68073C -2 4.68714 -2 4.69355 -2 4.69995C -2 4.70636 -2 4.71276 -2 4.71917C -2 4.72557 -2 4.73197 -2 4.73838C -2 4.74478 -2 4.75119 -2 4.75759C -2 4.76399 -2 4.7704 -2 4.7768C -2 4.7832 -2 4.78961 -2 4.79601C -2 4.80241 -2 4.80882 -2 4.81522C -2 4.82162 -2 4.82802 -2 4.83442C -2 4.84082 -2 4.84723 -2 4.85363C -2 4.86003 -2 4.86643 -2 4.87283C -2 4.87923 -2 4.88563 -2 4.89203C -2 4.89843 -2 4.90483 -2 4.91123C -2 4.91763 -2 4.92402 -2 4.93042C -2 4.93682 -2 4.94322 -2 4.94962C -2 4.95601 -2 4.96241 -2 4.96881C -2 4.9752 -2 4.9816 -2 4.98799C -2 4.99439 -2 5.00079 -2 5.00718C -2 5.01358 -2 5.01997 -2 5.02636C -2 5.03276 -2 5.03915 -2 5.04554C -2 5.05194 -2 5.05833 -2 5.06472C -2 5.07111 -2 5.07751 -2 5.0839C -2 5.09029 -2 5.09668 -2 5.10307C -2 5.10946 -2 5.11585 -2 5.12224C -2 5.12863 -2 5.13502 -2 5.1414C -2 5.14779 -2 5.15418 -2 5.16057C -2 5.16695 -2 5.17334 -2 5.17973C -2 5.18611 -2 5.1925 -2 5.19888C -2 5.20527 -2 5.21165 -2 5.21803C -2 5.22442 -2 5.2308 -2 5.23718C -2 5.24357 -2 5.24995 -2 5.25633C -2 5.26271 -2 5.26909 -2 5.27547C -2 5.28185 -2 5.28823 -2 5.29461C -2 5.30099 -2 5.30736 -2 5.31374C -2 5.32012 -2 5.3265 -2 5.33287C -2 5.33925 -2 5.34562 -2 5.352C -2 5.35837 -2 5.36475 -2 5.37112C -2 5.37749 -2 5.38387 -2 5.39024C -2 5.39661 -2 5.40298 -2 5.40935C -2 5.41572 -2 5.42209 -2 5.42846C -2 5.43483 -2 5.4412 -2 5.44756C -2 5.45393 -2 5.4603 -2 5.46666C -2 5.47303 -2 5.47939 -2 5.48576C -2 5.49212 -2 5.49848 -2 5.50485C -2 5.51121 -2 5.51757 -2 5.52393C -2 5.53029 -2 5.53665 -2 5.54301C -2 5.54937 -2 5.55573 -2 5.56209C -2 5.56845 -2 5.5748 -2 5.58116C -2 5.58751 -2 5.59387 -2 5.60022C -2 5.60658 -2 5.61293 -2 5.61928C -2 5.62564 -2 5.63199 -2 5.63834C -2 5.64469 -2 5.65104 -2 5.65739C -2 5.66374 -2 5.67008 -2 5.67643C -2 5.68278 -2 5.68912 -2 5.69547C -2 5.70181 -2 5.70816 -2 5.7145C -2 5.72084 -2 5.72719 -2 5.73353C -2 5.73987 -2 5.74621 -2 5.75255C -2 5.75889 -2 5.76523 -2 5.77156C -2 5.7779 -2 5.78424 -2 5.79057C -2 5.79691 -2 5.80324 -2 5.80957C -2 5.81591 -2 5.82224 -2 5.82857C -2 5.8349 -2 5.84123 -2 5.84756C -2 5.85389 -2 5.86022 -2 5.86654C -2 5.87287 -2 5.8792 -2 5.88552C -2 5.89184 -2 5.89817 -2 5.90449C -2 5.91081 -2 5.91713 -2 5.92345C -2 5.92977 -2 5.93609 -2 5.94241C -2 5.94873 -2 5.95505 -2 5.96136C -2 5.96768 -2 5.97399 -2 5.9803C -2 5.98662 -2 5.99293 -2 5.99924C -2 6.00555 -2 6.01186 -2 6.01817C -2 6.02448 -2 6.03079 -2 6.03709C -2 6.0434 -2 6.0497 -2 6.05601C -2 6.06231 -2 6.06861 -2 6.07492C -2 6.08122 -2 6.08752 -2 6.09382C -2 6.10011 -2 6.10641 -2 6.11271C -2 6.119 -2 6.1253 -2 6.13159C -2 6.13789 -2 6.14418 -2 6.15047C -2 6.15676 -2 6.16305 -2 6.16934C -2 6.17563 -2 6.18192 -2 6.1882C -2 6.19449 -2 6.20077 -2 6.20706C -2 6.21334 -2 6.21962 -2 6.2259C -2 6.23218 -2 6.23846 -2 6.24474C -2 6.25102 -2 6.25729 -2 6.26357C -2 6.26984 -2 6.27612 -2 6.28239C -2 6.28866 -2 6.29493 -2 6.3012C -2 6.30747 -2 6.31374 -2 6.32001C -2 6.32627 -2 6.33254 -2 6.3388C -2 6.34507 -2 6.35133 -2 6.35759C -2 6.36385 -2 6.37011 -2 6.37637C -2 6.38263 -2 6.38888 -2 6.39514C -2 6.40139 -2 6.40765 -2 6.4139C -2 6.42015 -2 6.4264 -2 6.43265C -2 6.4389 -2 6.44515 -2 6.45139C -2 6.45764 -2 6.46388 -2 6.47013C -2 6.47637 -2 6.48261 -2 6.48885C -2 6.49509 -2 6.50133 -2 6.50757C -2 6.5138 -2 6.52004 -2 6.52627C -2 6.53251 -2 6.53874 -2 6.54497C -2 6.5512 -2 6.55743 -2 6.56366C -2 6.56988 -2 6.57611 -2 6.58233C -2 6.58856 -2 6.59478 -2 6.601C -2 6.60722 -2 6.61344 -2 6.61966C -2 6.62588 -2 6.63209 -2 6.63831C -2 6.64452 -2 6.65073 -2 6.65694C -2 6.66316 -2 6.66936 -2 6.67557C -2 6.68178 -2 6.68799 -2 6.69419C -2 6.70039 -2 6.7066 -2 6.7128C -2 6.719 -2 6.7252 -2 6.73139C -2 6.73759 -2 6.74379 -2 6.74998C -2 6.75617 -2 6.76237 -2 6.76856C -2 6.77475 -2 6.78093 -2 6.78712C -2 6.79331 -2 6.79949 -2 6.80568C -2 6.81186 -2 6.81804 -2 6.82422C -2 6.8304 -2 6.83658 -2 6.84275C -2 6.84893 -2 6.8551 -2 6.86127C -2 6.86745 -2 6.87362 -2 6.87979C -2 6.88595 -2 6.89212 -2 6.89829C -2 6.90445 -2 6.91061 -2 6.91677C -2 6.92294 -2 6.92909 -2 6.93525C -2 6.94141 -2 6.94756 -2 6.95372C -2 6.95987 -2 6.96602 -2 6.97217C -2 6.97832 -2 6.98447 -2 6.99062C -2 6.99676 -2 7.00291 -2 7.00905C -2 7.01519 -2 7.02133 -2 7.02747C -2 7.0336 -2 7.03974 -2 7.04587C -2 7.05201 -2 7.05814 -2 7.06427C -2 7.0704 -2 7.07653 -2 7.08266C -2 7.08878 -2 7.09491 -2 7.10103C -2 7.10715 -2 7.11327 -2 7.11939C -2 7.12551 -2 7.13162 -2 7.13773C -2 7.14385 -2 7.14996 -2 7.15607C -2 7.16218 -2 7.16829 -2 7.17439C -2 7.1805 -2 7.1866 -2 7.1927C -2 7.19881 -2 7.2049 -2 7.211C -2 7.2171 -2 7.22319 -2 7.22929C -2 7.23538 -2 7.24147 -2 7.24756C -2 7.25365 -2 7.25973 -2 7.26582C -2 7.2719 -2 7.27799 -2 7.28407C -2 7.29015 -2 7.29622 -2 7.3023C -2 7.30838 -2 7.31445 -2 7.32052C -2 7.32659 -2 7.33266 -2 7.33873C -2 7.3448 -2 7.35086 -2 7.35692C -2 7.36299 -2 7.36905 -2 7.3751C -2 7.38116 -2 7.38722 -2 7.39327C -2 7.39932 -2 7.40538 -2 7.41143C -2 7.41747 -2 7.42352 -2 7.42957C -2 7.43561 -2 7.44165 -2 7.44769C -2 7.45373 -2 7.45977 -2 7.46581C -2 7.47184 -2 7.47787 -2 7.4839C -2 7.48994 -2 7.49596 -2 7.50199C -2 7.50802 -2 7.51404 -2 7.52006C -2 7.52608 -2 7.5321 -2 7.53812C -2 7.54413 -2 7.55015 -2 7.55616C -2 7.56217 -2 7.56818 -2 7.57419C -2 7.5802 -2 7.5862 -2 7.5922C -2 7.59821 -2 7.60421 -2 7.6102C -2 7.6162 -2 7.6222 -2 7.62819C -2 7.63418 -2 7.64017 -2 7.64616C -2 7.65215 -2 7.65813 -2 7.66411C -2 7.6701 -2 7.67608 -2 7.68206C -2 7.68803 -2 7.69401 -2 7.69998C -2 7.70595 -2 7.71193 -2 7.71789C -2 7.72386 -2 7.72983 -2 7.73579C -2 7.74175 -2 7.74771 -2 7.75367C -2 7.75963 -2 7.76558 -2 7.77154C -2 7.77749 -2 7.78344 -2 7.78939C -2 7.79533 -2 7.80128 -2 7.80722C -2 7.81316 -2 7.8191 -2 7.82504C -2 7.83098 -2 7.83691 -2 7.84284C -2 7.84878 -2 7.85471 -2 7.86063C -2 7.86656 -2 7.87248 -2 7.87841C -2 7.88433 -2 7.89025 -2 7.89616C -2 7.90208 -2 7.90799 -2 7.9139C -2 7.91981 -2 7.92572 -2 7.93163C -2 7.93753 -2 7.94344 -2 7.94934C -2 7.95524 -2 7.96113 -2 7.96703C -2 7.97292 -2 7.97882 -2 7.98471C -2 7.9906 -2 7.99648 -2 8.00237C -2 8.00825 -2 8.01413 -2 8.02001C -2 8.02589 -2 8.03176 -2 8.03764C -2 8.04351 -2 8.04938 -2 8.05525C -2 8.06111 -2 8.06698 -2 8.07284C -2 8.0787 -2 8.08456 -2 8.09042C -2 8.09627 -2 8.10213 -2 8.10798C -2 8.11383 -2 8.11968 -2 8.12552C -2 8.13137 -2 8.13721 -2 8.14305C -2 8.14889 -2 8.15472 -2 8.16056C -2 8.16639 -2 8.17222 -2 8.17805C -2 8.18387 -2 8.1897 -2 8.19552C -2 8.20134 -2 8.20716 -2 8.21298C -2 8.21879 -2 8.22461 -2 8.23042C -2 8.23623 -2 8.24204 -2 8.24784C -2 8.25364 -2 8.25945 -2 8.26524C -2 8.27104 -2 8.27684 -2 8.28263C -2 8.28842 -2 8.29421 -2 8.3C -2 8.30579 -2 8.31157 -2 8.31735C -2 8.32313 -2 8.32891 -2 8.33468C -2 8.34046 -2 8.34623 -2 8.352C -2 8.35777 -2 8.36353 -2 8.3693C -2 8.37506 -2 8.38082 -2 8.38657C -2 8.39233 -2 8.39808 -2 8.40384C -2 8.40959 -2 8.41533 -2 8.42108C -2 8.42682 -2 8.43256 -2 8.4383C -2 8.44404 -2 8.44977 -2 8.45551C -2 8.46124 -2 8.46697 -2 8.47269C -2 8.47842 -2 8.48414 -2 8.48986C -2 8.49558 -2 8.50129 -2 8.50701C -2 8.51272 -2 8.51843 -2 8.52414C -2 8.52984 -2 8.53555 -2 8.54125C -2 8.54695 -2 8.55265 -2 8.55834C -2 8.56403 -2 8.56972 -2 8.57541C -2 8.5811 -2 8.58678 -2 8.59246C -2 8.59815 -2 8.60382 -2 8.6095C -2 8.61517 -2 8.62084 -2 8.62651C -2 8.63218 -2 8.63785 -2 8.64351C -2 8.64917 -2 8.65483 -2 8.66048C -2 8.66614 -2 8.67179 -2 8.67744C -2 8.68309 -2 8.68873 -2 8.69437C -2 8.70002 -2 8.70565 -2 8.71129C -2 8.71692 -2 8.72256 -2 8.72819C -2 8.73381 -2 8.73944 -2 8.74506C -2 8.75068 -2 8.7563 -2 8.76192C -2 8.76753 -2 8.77314 -2 8.77875C -2 8.78436 -2 8.78997 -2 8.79557C -2 8.80117 -2 8.80677 -2 8.81236C -2 8.81796 -2 8.82355 -2 8.82914C -2 8.83472 -2 8.84031 -2 8.84589C -2 8.85147 -2 8.85705 -2 8.86262C -2 8.8682 -2 8.87377 -2 8.87934C -2 8.8849 -2 8.89047 -2 8.89603C -2 8.90159 -2 8.90715 -2 8.9127C -2 8.91825 -2 8.9238 -2 8.92935C -2 8.93489 -2 8.94044 -2 8.94598C -2 8.95152 -2 8.95705 -2 8.96258C -2 8.96812 -2 8.97365 -2 8.97917C -2 8.9847 -2 8.99022 -2 8.99574C -2 9.00125 -2 9.00677 -2 9.01228C -2 9.01779 -2 9.0233 -2 9.0288C -2 9.03431 -2 9.03981 -2 9.0453C -2 9.0508 -2 9.05629 -2 9.06178C -2 9.06727 -2 9.07276 -2 9.07824C -2 9.08372 -2 9.0892 -2 9.09467C -2 9.10015 -2 9.10562 -2 9.11109C -2 9.11655 -2 9.12202 -2 9.12748C -2 9.13294 -2 9.13839 -2 9.14385C -2 9.1493 -2 9.15475 -2 9.16019C -2 9.16564 -2 9.17108 -2 9.17652C -2 9.18196 -2 9.18739 -2 9.19282C -2 9.19825 -2 9.20368 -2 9.2091C -2 9.21452 -2 9.21994 -2 9.22536C -2 9.23077 -2 9.23619 -2 9.24159C -2 9.247 -2 9.2524 -2 9.25781C -2 9.26321 -2 9.2686 -2 9.27399C -2 9.27939 -2 9.28478 -2 9.29016C -2 9.29555 -2 9.30093 -2 9.3063C -2 9.31168 -2 9.31706 -2 9.32242C -2 9.32779 -2 9.33316 -2 9.33852C -2 9.34388 -2 9.34924 -2 9.3546C -2 9.35995 -2 9.3653 -2 9.37065C -2 9.37599 -2 9.38134 -2 9.38667C -2 9.39201 -2 9.39735 -2 9.40268C -2 9.40801 -2 9.41334 -2 9.41866C -2 9.42398 -2 9.4293 -2 9.43462C -2 9.43993 -2 9.44524 -2 9.45055C -2 9.45586 -2 9.46116 -2 9.46646C -2 9.47176 -2 9.47705 -2 9.48234C -2 9.48763 -2 9.49292 -2 9.4982C -2 9.50349 -2 9.50877 -2 9.51404C -2 9.51932 -2 9.52459 -2 9.52985C -2 9.53512 -2 9.54038 -2 9.54564C -2 9.5509 -2 9.55616 -2 9.56141C -2 9.56666 -2 9.57191 -2 9.57715C -2 9.58239 -2 9.58763 -2 9.59286C -2 9.5981 -2 9.60333 -2 9.60855C -2 9.61378 -2 9.619 -2 9.62422C -2 9.62944 -2 9.63465 -2 9.63986C -2 9.64507 -2 9.65028 -2 9.65548C -2 9.66068 -2 9.66588 -2 9.67107C -2 9.67626 -2 9.68145 -2 9.68664C -2 9.69182 -2 9.697 -2 9.70218C -2 9.70736 -2 9.71253 -2 9.7177C -2 9.72286 -2 9.72803 -2 9.73319C -2 9.73835 -2 9.7435 -2 9.74865C -2 9.7538 -2 9.75895 -2 9.76409C -2 9.76924 -2 9.77437 -2 9.77951C -2 9.78464 -2 9.78977 -2 9.7949C -2 9.80002 -2 9.80514 -2 9.81026C -2 9.81538 -2 9.82049 -2 9.8256C -2 9.83071 -2 9.83581 -2 9.84091C -2 9.84601 -2 9.85111 -2 9.8562C -2 9.86129 -2 9.86637 -2 9.87146C -2 9.87654 -2 9.88162 -2 9.88669C -2 9.89176 -2 9.89683 -2 9.9019C -2 9.90696 -2 9.91202 -2 9.91708C -2 9.92213 -2 9.92719 -2 9.93223C -2 9.93728 -2 9.94232 -2 9.94736C -2 9.9524 -2 9.95743 -2 9.96246C -2 9.96749 -2 9.97252 -2 9.97754C -2 9.98256 -2 9.98758 -2 9.99259C -2 9.9976 -2 10.0026 -2 10.0076C -2 10.0126 -2 10.0176 -2 10.0226C -2 10.0276 -2 10.0326 -2 10.0376C -2 10.0426 -2 10.0475 -2 10.0525C -2 10.0575 -2 10.0625 -2 10.0674C -2 10.0724 -2 10.0774 -2 10.0823C -2 10.0873 -2 10.0922 -2 10.0972C -2 10.1021 -2 10.1071 -2 10.112C -2 10.1169 -2 10.1219 -2 10.1268C -2 10.1317 -2 10.1367 -2 10.1416C -2 10.1465 -2 10.1514 -2 10.1563C -2 10.1612 -2 10.1661 -2 10.1711C -2 10.176 -2 10.1809 -2 10.1857C -2 10.1906 -2 10.1955 -2 10.2004C -2 10.2053 -2 10.2102 -2 10.215C -2 10.2199 -2 10.2248 -2 10.2297C -2 10.2345 -2 10.2394 -2 10.2442C -2 10.2491 -2 10.2539 -2 10.2588C -2 10.2636 -2 10.2685 -2 10.2733C -2 10.2781 -2 10.283 -2 10.2878C -2 10.2926 -2 10.2975 -2 10.3023C -2 10.3071 -2 10.3119 -2 10.3167C -2 10.3215 -2 10.3263 -2 10.3311C -2 10.3359 -2 10.3407 -2 10.3455C -2 10.3503 -2 10.3551 -2 10.3599C -2 10.3646 -2 10.3694 -2 10.3742C -2 10.379 -2 10.3837 -2 10.3885C -2 10.3932 -2 10.398 -2 10.4027C -2 10.4075 -2 10.4122 -2 10.417C -2 10.4217 -2 10.4265 -2 10.4312C -2 10.4359 -2 10.4406 -2 10.4454C -2 10.4501 -2 10.4548 -2 10.4595C -2 10.4642 -2 10.4689 -2 10.4736C -2 10.4783 -2 10.483 -2 10.4877C -2 10.4924 -2 10.4971 -2 10.5018C -2 10.5065 -2 10.5111 -2 10.5158C -2 10.5205 -2 10.5251 -2 10.5298C -2 10.5345 -2 10.5391 -2 10.5438C -2 10.5484 -2 10.5531 -2 10.5577C -2 10.5623 -2 10.567 -2 10.5716C -2 10.5762 -2 10.5809 -2 10.5855C -2 10.5901 -2 10.5947 -2 10.5993C -2 10.604 -2 10.6086 -2 10.6132C -2 10.6178 -2 10.6224 -2 10.6269C -2 10.6315 -2 10.6361 -2 10.6407C -2 10.6453 -2 10.6499 -2 10.6544C -2 10.659 -2 10.6636 -2 10.6681C -2 10.6727 -2 10.6772 -2 10.6818C -2 10.6863 -2 10.6909 -2 10.6954C -2 10.7 -2 10.7045 -2 10.709C -2 10.7136 -2 10.7181 -2 10.7226C -2 10.7271 -2 10.7316 -2 10.7361C -2 10.7406 -2 10.7451 -2 10.7496C -2 10.7541 -2 10.7586 -2 10.7631C -2 10.7676 -2 10.7721 -2 10.7766C -2 10.781 -2 10.7855 -2 10.79C -2 10.7944 -2 10.7989 -2 10.8034C -2 10.8078 -2 10.8123 -2 10.8167C -2 10.8212 -2 10.8256 -2 10.83C -2 10.8345 -2 10.8389 -2 10.8433C -2 10.8477 -2 10.8522 -2 10.8566C -2 10.861 -2 10.8654 -2 10.8698C -2 10.8742 -2 10.8786 -2 10.883C -2 10.8874 -2 10.8918 -2 10.8961C -2 10.9005 -2 10.9049 -2 10.9093C -2 10.9136 -2 10.918 -2 10.9224C -2 10.9267 -2 10.9311 -2 10.9354C -2 10.9398 -2 10.9441 -2 10.9485C -2 10.9528 -2 10.9571 -2 10.9615C -2 10.9658 -2 10.9701 -2 10.9744C -2 10.9787 -2 10.983 -2 10.9874C -2 10.9917 -2 10.996 -2 11.0003L 2 11.0003ZM 2.00154 11C 1.99888 11 1.99829 10.9998 1.99914 10.9999C 1.99986 11.0001 2.0007 11.0003 2.00136 11.0006C 2.00243 11.0011 2.00153 11.0009 1.9999 10.9992C 1.99827 10.9976 1.99831 10.997 1.99899 10.9986C 1.99939 10.9995 1.99975 11.0007 1.99997 11.0017C 2.00021 11.0029 2 11.0026 2 11.0003L -2 11.0003C -2 13.2117 -0.205258 15 2.00154 15L 2.00154 11ZM 15 11C 15 11.0024 14.9998 11.0027 15 11.0015C 15.0002 11.0005 15.0006 10.9994 15.001 10.9984C 15.0016 10.9969 15.0016 10.9976 15 10.9992C 14.9983 11.0009 14.9974 11.0011 14.9985 11.0007C 14.9992 11.0004 15 11.0001 15.0008 10.9999C 15.0016 10.9998 15.0011 11 14.9985 11L 14.9985 15C 17.2056 15 19 13.2111 19 11L 15 11ZM 15 2L 15 2L 19 2C 19 -0.209139 17.2091 -2 15 -2L 15 2ZM 2 -2C -0.208954 -2 -2 -0.209466 -2 1.99986L 2 1.99986L 2 2L 2 -2Z"/>
<path id="path4_fill" d="M 0 2C 0 0.89543 0.895431 0 2 0L 15 0C 16.1046 0 17 0.895431 17 2L 17 11C 17 12.1046 16.1046 13 15 13L 2 13C 0.89543 13 0 12.1046 0 11L 0 2Z"/>
<path id="path5_stroke_2x" d="M 2 2L 15 2L 15 -2L 2 -2L 2 2ZM 15 2L 15 11L 19 11L 19 2L 15 2ZM 15 11L 2 11L 2 15L 15 15L 15 11ZM 2 11L 2 2L -2 2L -2 11L 2 11ZM 2 11L 2 11L -2 11C -2 13.2091 -0.209139 15 2 15L 2 11ZM 15 11L 15 11L 15 15C 17.2091 15 19 13.2091 19 11L 15 11ZM 15 2L 15 2L 19 2C 19 -0.209139 17.2091 -2 15 -2L 15 2ZM 2 -2C -0.209139 -2 -2 -0.209139 -2 2L 2 2L 2 2L 2 -2Z"/>
</defs>
</svg>
